<?xml version="1.0" encoding="UTF-8"?>
<svg version="1.1" xmlns="http://www.w3.org/2000/svg" width="1026" height="1026">
<path d="M0 0 C1.226548 0.00303635 1.226548 0.00303635 2.47787476 0.00613403 C3.76315567 0.00350555 3.76315567 0.00350555 5.07440186 0.00082397 C7.9211527 -0.00359561 10.76784197 -0.00065618 13.61459351 0.00271606 C15.58375053 0.00204306 17.55290747 0.00107306 19.52206421 -0.00018311 C23.65480335 -0.00166022 27.78752093 0.00049492 31.92025757 0.00515747 C37.23033871 0.01085476 42.54036932 0.00757583 47.85044861 0.00158501 C51.91834904 -0.00202023 55.9862374 -0.00088219 60.05413818 0.0017128 C62.01265468 0.00238217 63.97117226 0.00155329 65.9296875 -0.00076675 C68.6619255 -0.00329267 71.39408047 0.00054645 74.12631226 0.00613403 C74.94401093 0.0041098 75.76170959 0.00208557 76.60418701 0 C82.18783105 0.02126611 82.18783105 0.02126611 83.30209351 1.13552856 C85.36996445 1.33025574 87.44312693 1.46933651 89.51693726 1.58474731 C96.69370942 2.05242258 103.7514125 2.90287795 110.86459351 3.94802856 C112.07043091 4.1232605 113.27626831 4.29849243 114.51864624 4.47903442 C127.86146217 6.45754633 141.31125386 8.49041218 154.27474976 12.29959106 C157.67344198 13.23806866 161.09280868 14.03009766 164.52816772 14.82180786 C172.81841465 16.73649212 181.02390798 18.82333977 189.17709351 21.26052856 C189.99041138 21.50198608 190.80372925 21.7434436 191.64169312 21.99221802 C195.11435364 23.0512255 198.41050858 24.18248384 201.74740601 25.62771606 C205.35375675 27.15744286 208.93290865 28.24825156 212.68734741 29.34060669 C217.02829868 30.66032073 221.25441818 32.26244834 225.48959351 33.88552856 C226.40378052 34.23550903 227.31796753 34.5854895 228.25985718 34.94607544 C236.12517269 37.99703167 243.73792334 41.40717802 251.30209351 45.13552856 C251.90199097 45.42862915 252.50188843 45.72172974 253.1199646 46.02371216 C257.87147747 48.34742642 262.58999531 50.73306945 267.30209351 53.13552856 C268.16898804 53.57526001 269.03588257 54.01499146 269.92904663 54.4680481 C307.71813094 73.68608171 342.87352725 97.23482715 374.69955444 125.26663208 C377.04241437 127.31007933 379.31212273 129.14151398 381.98568726 130.73709106 C384.43354322 132.21488606 385.87213462 133.68435919 387.67709351 135.88552856 C391.02726349 139.8547517 394.59542484 143.50234011 398.30209351 147.13552856 C399.96876017 148.80219523 401.63542684 150.4688619 403.30209351 152.13552856 C404.57261142 153.39496142 405.84347234 154.65404831 407.11459351 155.91287231 C408.51047843 157.29953913 409.90631062 158.68625904 411.30209351 160.07302856 C412.00076538 160.76332153 412.69943726 161.4536145 413.41928101 162.16482544 C417.27010686 165.99748702 421.00312933 169.81208138 424.30209351 174.13552856 C424.30209351 174.79552856 424.30209351 175.45552856 424.30209351 176.13552856 C424.96209351 176.13552856 425.62209351 176.13552856 426.30209351 176.13552856 C431.30209351 181.61171904 431.30209351 181.61171904 431.30209351 184.13552856 C431.96209351 184.13552856 432.62209351 184.13552856 433.30209351 184.13552856 C434.97491118 186.03448641 436.51907047 187.93955883 438.05209351 189.94802856 C438.77247803 190.88050415 438.77247803 190.88050415 439.50741577 191.83181763 C441.11600685 193.92536856 442.71087515 196.02874608 444.30209351 198.13552856 C444.86074097 198.87400024 445.41938843 199.61247192 445.9949646 200.37332153 C454.52011159 211.68790241 462.61637456 223.23523685 470.30209351 235.13552856 C470.72941772 235.79585083 471.15674194 236.4561731 471.59701538 237.13650513 C484.74829857 257.56100187 497.10994854 278.84897839 506.61459351 301.22927856 C508.00340213 304.48713805 509.49404433 307.68474772 511.02474976 310.87796021 C514.15157957 317.40149503 516.76928019 323.95174863 519.12240601 330.80349731 C520.24373574 333.97069687 521.48430685 337.04568718 522.80209351 340.13552856 C526.73746024 349.42942925 530.08722413 358.85729602 532.62240601 368.62771606 C533.26104875 370.98408758 534.00062089 373.26776197 534.80209351 375.57302856 C536.65522005 381.00693609 537.97722415 386.55313632 539.30209351 392.13552856 C539.54959351 393.16806763 539.79709351 394.20060669 540.05209351 395.26443481 C541.70766129 402.29197516 543.17462926 409.34605095 544.55599976 416.43240356 C545.08028399 419.03461012 545.64826626 421.59795019 546.25912476 424.17849731 C547.70197232 430.62234905 548.53238872 437.1600562 549.42709351 443.69802856 C549.69973022 445.61131958 549.69973022 445.61131958 549.97787476 447.56326294 C550.84307225 453.83106584 551.40532648 459.81619587 551.30209351 466.13552856 C551.46231491 466.70063644 551.62253632 467.26574432 551.78761292 467.84797668 C552.55024176 471.23887827 552.46670286 474.62543609 552.47909546 478.08401489 C552.48566666 478.88336456 552.49223785 479.68271423 552.49900818 480.50628662 C552.51874852 483.16004554 552.53042495 485.81374693 552.54037476 488.46755981 C552.54648805 489.84376779 552.54648805 489.84376779 552.55272484 491.24777794 C552.57361973 496.13345487 552.58788907 501.0191037 552.59725952 505.90481567 C552.60600446 509.88544575 552.626594 513.86571351 552.65878296 517.84622192 C552.84705466 541.63905983 552.24886329 564.63487032 548.30209351 588.13552856 C547.94577099 590.33172976 547.58948724 592.52793725 547.23324585 594.72415161 C546.33440358 600.20992808 545.33133365 605.6729506 544.30209351 611.13552856 C544.14241089 612.00741821 543.98272827 612.87930786 543.81820679 613.77761841 C541.92517032 624.08842109 539.59029536 634.08728117 536.50131226 644.10427856 C535.36363091 647.82985295 534.4791162 651.58649926 533.61459351 655.38552856 C525.05278367 690.82141165 509.09757616 725.24014847 491.86312866 757.20388794 C489.59038874 761.47211768 487.43375165 765.79545065 485.30209351 770.13552856 C484.64209351 770.13552856 483.98209351 770.13552856 483.30209351 770.13552856 C483.01334351 770.85740356 482.72459351 771.57927856 482.42709351 772.32302856 C481.38542684 774.92719523 480.34376017 777.5313619 479.30209351 780.13552856 C478.64209351 780.13552856 477.98209351 780.13552856 477.30209351 780.13552856 C477.03396851 780.83677856 476.76584351 781.53802856 476.48959351 782.26052856 C475.2339486 785.30051096 473.79974228 788.20830597 472.30209351 791.13552856 C471.64209351 791.13552856 470.98209351 791.13552856 470.30209351 791.13552856 C470.05459351 791.81615356 469.80709351 792.49677856 469.55209351 793.19802856 C467.46336667 798.10653662 465.10236625 802.35388461 461.30209351 806.13552856 C457.51783033 810.99476719 453.99882478 816.04278187 450.62631226 821.19412231 C450.17779907 821.87829224 449.72928589 822.56246216 449.2671814 823.2673645 C448.38083478 824.62699987 447.50098737 825.99089649 446.62802124 827.35916138 C445.56998399 828.98535302 444.44193834 830.56559358 443.30209351 832.13552856 C442.64209351 832.13552856 441.98209351 832.13552856 441.30209351 832.13552856 C440.97209351 833.12552856 440.64209351 834.11552856 440.30209351 835.13552856 C439.64209351 835.13552856 438.98209351 835.13552856 438.30209351 835.13552856 C438.05588257 835.6911145 437.80967163 836.24670044 437.55599976 836.81912231 C436.06204944 839.57897445 434.25150942 841.78869716 432.23959351 844.19802856 C431.52674194 845.05525513 430.81389038 845.91248169 430.07943726 846.79568481 C429.65444946 847.30091675 429.22946167 847.80614868 428.79159546 848.32669067 C427.69624952 849.65686902 426.6252544 851.00719363 425.56845093 852.36819458 C418.96075306 860.75059909 411.52420419 868.21763658 403.96347046 875.7348938 C401.73348813 877.95410445 399.51446525 880.18387538 397.29623413 882.41482544 C395.86002635 883.84971228 394.42319864 885.28397896 392.98568726 886.71755981 C392.33337631 887.37391922 391.68106537 888.03027863 391.00898743 888.70652771 C387.23803439 892.43980703 383.35872538 895.7408543 379.04441833 898.83357239 C376.54433606 900.70176453 374.44665735 902.87504235 372.30209351 905.13552856 C369.17644944 908.41745483 366.35250952 911.0555852 362.30209351 913.13552856 C361.64209351 913.13552856 360.98209351 913.13552856 360.30209351 913.13552856 C360.07521851 913.91927856 359.84834351 914.70302856 359.61459351 915.51052856 C358.30209351 918.13552856 358.30209351 918.13552856 355.73959351 919.32302856 C354.93521851 919.59115356 354.13084351 919.85927856 353.30209351 920.13552856 C352.97209351 920.79552856 352.64209351 921.45552856 352.30209351 922.13552856 C351.64209351 922.13552856 350.98209351 922.13552856 350.30209351 922.13552856 C350.30209351 922.79552856 350.30209351 923.45552856 350.30209351 924.13552856 C349.25021851 924.54802856 348.19834351 924.96052856 347.11459351 925.38552856 C343.70476901 926.83900931 341.12046552 928.7085971 338.30209351 931.13552856 C337.31209351 931.79552856 336.32209351 932.45552856 335.30209351 933.13552856 C334.97209351 934.12552856 334.64209351 935.11552856 334.30209351 936.13552856 C333.51834351 936.23865356 332.73459351 936.34177856 331.92709351 936.44802856 C328.9716417 936.91147878 328.9716417 936.91147878 327.30209351 940.13552856 C324.84115601 941.67068481 324.84115601 941.67068481 321.92709351 943.19802856 C320.97060913 943.70463013 320.01412476 944.21123169 319.02865601 944.73318481 C317.38919467 945.57640347 315.74052789 946.40251853 314.07553101 947.19412231 C312.12234096 948.11993292 312.12234096 948.11993292 310.30209351 950.13552856 C308.96876017 950.80219523 307.63542684 951.4688619 306.30209351 952.13552856 C305.64209351 952.79552856 304.98209351 953.45552856 304.30209351 954.13552856 C303.45646851 954.46552856 302.61084351 954.79552856 301.73959351 955.13552856 C299.1536791 955.88422971 299.1536791 955.88422971 298.30209351 958.13552856 C296.18519952 959.19541562 294.03301698 960.18550733 291.86459351 961.13552856 C287.2054049 963.07981699 287.2054049 963.07981699 283.30209351 966.13552856 C282.64209351 966.13552856 281.98209351 966.13552856 281.30209351 966.13552856 C280.68334351 966.79552856 280.06459351 967.45552856 279.42709351 968.13552856 C277.30209351 970.13552856 277.30209351 970.13552856 273.30209351 970.13552856 C273.30209351 970.79552856 273.30209351 971.45552856 273.30209351 972.13552856 C272.50432495 972.43048218 271.7065564 972.72543579 270.88461304 973.02932739 C263.12286642 975.94924426 255.65295878 979.24411944 248.17709351 982.82302856 C201.49480456 1004.72951682 149.96991206 1018.23193911 98.80990601 1023.93167114 C98.13582199 1024.0068396 97.46173798 1024.08200806 96.76722717 1024.15945435 C94.94311594 1024.3604246 93.11835146 1024.55544044 91.29354858 1024.75003052 C88.45465171 1025.04984704 88.45465171 1025.04984704 86.35231018 1025.65168571 C82.89627735 1026.4672955 79.36637027 1026.27383816 75.83334351 1026.2649231 C74.98087036 1026.26667542 74.12839722 1026.26842773 73.25009155 1026.27023315 C70.43407146 1026.274632 67.61811424 1026.27172058 64.80209351 1026.26834106 C62.84441109 1026.26901467 60.88672876 1026.26998517 58.92904663 1026.27124023 C54.82682499 1026.27271454 50.72462512 1026.2705712 46.62240601 1026.26589966 C41.36315172 1026.26020254 36.10394846 1026.26348297 30.84469604 1026.26947212 C26.80241511 1026.27308492 22.76014629 1026.27193583 18.71786499 1026.26934433 C16.77857456 1026.26867705 14.83928304 1026.26949654 12.8999939 1026.27182388 C10.19024746 1026.27436215 7.48058378 1026.27049316 4.77084351 1026.2649231 C3.56754395 1026.26795944 3.56754395 1026.26795944 2.3399353 1026.27105713 C-1.18752329 1026.25761846 -4.30102131 1026.04108177 -7.69790649 1025.13552856 C-9.27942552 1024.96122549 -10.86486671 1024.82067254 -12.45181274 1024.70584106 C-13.37864868 1024.63453979 -14.30548462 1024.56323853 -15.26040649 1024.48977661 C-16.74540649 1024.37629883 -16.74540649 1024.37629883 -18.26040649 1024.26052856 C-35.87841151 1022.80108963 -52.84393845 1019.59242626 -70.07632446 1015.70608521 C-72.55200218 1015.16728293 -75.03216194 1014.68893529 -77.52212524 1014.22146606 C-83.92985273 1012.9548296 -90.17593088 1011.13258542 -96.44790649 1009.32302856 C-98.30862793 1008.78899414 -98.30862793 1008.78899414 -100.2069397 1008.24417114 C-108.50411091 1005.83700419 -116.61532768 1003.18711444 -124.69790649 1000.13552856 C-126.21591619 999.62702037 -127.73657052 999.12630136 -129.26040649 998.63552856 C-136.54589637 996.23880666 -143.73712171 993.46671157 -150.76040649 990.38552856 C-153.09942109 989.39020321 -155.21564052 988.63198176 -157.69790649 988.13552856 C-157.69790649 987.47552856 -157.69790649 986.81552856 -157.69790649 986.13552856 C-158.28958618 985.94216919 -158.88126587 985.74880981 -159.49087524 985.54959106 C-160.28107056 985.28920044 -161.07126587 985.02880981 -161.88540649 984.76052856 C-162.66271118 984.50529419 -163.44001587 984.25005981 -164.24087524 983.98709106 C-168.30272964 982.57932595 -172.17855559 980.9570816 -176.01040649 979.01052856 C-179.18302094 977.40288089 -182.35995582 975.80682818 -185.55337524 974.24099731 C-192.39370188 970.87572902 -199.07511244 967.44097942 -205.56118774 963.42068481 C-207.47090833 962.27205945 -209.37468871 961.27908414 -211.38540649 960.32302856 C-229.06337114 951.67734406 -246.0316711 939.95701789 -261.69790649 928.13552856 C-262.98517655 927.17783785 -264.2729803 926.22086426 -265.56118774 925.26443481 C-276.24501897 917.31670671 -286.64976093 909.28162258 -296.35025024 900.13943481 C-299.0683946 897.63084767 -301.93045457 895.3423853 -304.82290649 893.03787231 C-311.2453144 887.82058443 -316.98244583 882.04097846 -322.76040649 876.13552856 C-324.30450596 874.56371387 -325.85013334 872.99347301 -327.3986969 871.42605591 C-328.78053504 870.02654765 -330.15746102 868.62219421 -331.53408813 867.21755981 C-333.51882115 865.100947 -333.51882115 865.100947 -335.69790649 864.13552856 C-335.69790649 863.47552856 -335.69790649 862.81552856 -335.69790649 862.13552856 C-336.35790649 862.13552856 -337.01790649 862.13552856 -337.69790649 862.13552856 C-337.69790649 861.47552856 -337.69790649 860.81552856 -337.69790649 860.13552856 C-338.35790649 860.13552856 -339.01790649 860.13552856 -339.69790649 860.13552856 C-341.03902358 858.37090082 -342.37089973 856.59887531 -343.67056274 854.80349731 C-346.15899787 851.52873587 -348.81904088 848.43149687 -351.51040649 845.32302856 C-359.41470515 836.15647421 -367.00437699 826.89909903 -373.96743774 816.99099731 C-375.88961991 814.25947529 -377.84949792 811.55992578 -379.83462524 808.87380981 C-386.90113339 799.28685761 -393.36979706 789.50432755 -399.43667603 779.25662231 C-400.64310978 777.22768378 -401.86751582 775.21107117 -403.10025024 773.19802856 C-411.02771682 760.22002562 -418.0267028 746.79999406 -424.69790649 733.13552856 C-425.22771118 732.05916138 -425.75751587 730.98279419 -426.30337524 729.87380981 C-431.93400314 718.14444956 -436.68728891 706.04876917 -441.53775024 693.98123169 C-442.47063965 691.69298275 -443.4338508 689.42677317 -444.43228149 687.16677856 C-445.96359406 683.49919045 -446.9032222 679.82829833 -447.85415649 675.97927856 C-448.66772608 673.23724775 -449.75748023 670.72660345 -450.90835571 668.11355591 C-452.45149665 664.24759182 -453.44686643 660.2169274 -454.51040649 656.19802856 C-454.89615845 654.75230469 -454.89615845 654.75230469 -455.28970337 653.27737427 C-455.82945609 651.24361622 -456.36602553 649.20901094 -456.89956665 647.1736145 C-457.41439546 645.21443109 -457.93451093 643.25662558 -458.46109009 641.30056763 C-465.15788484 616.40928486 -469.73751198 591.25255307 -471.84902954 565.56887817 C-471.94997925 564.3430603 -472.05092896 563.11724243 -472.15493774 561.85427856 C-472.23719604 560.77082153 -472.31945435 559.6873645 -472.40420532 558.57107544 C-472.43701386 556.19063301 -472.43701386 556.19063301 -473.69790649 555.13552856 C-473.7983411 552.49880045 -473.83407496 549.8882404 -473.82730103 547.25100708 C-473.82905334 546.42502014 -473.83080566 545.5990332 -473.83261108 544.74801636 C-473.83703093 542.00346812 -473.83409088 539.25898376 -473.83071899 536.51443481 C-473.83139206 534.61493416 -473.83236211 532.71543359 -473.83361816 530.81593323 C-473.83509537 526.82862531 -473.8329401 522.84133975 -473.82827759 518.85403442 C-473.82258416 513.73462167 -473.82585672 508.61526138 -473.83185005 503.49585056 C-473.83545835 499.57116804 -473.83431577 495.64649801 -473.83172226 491.72181511 C-473.83105354 489.8339023 -473.83187952 487.94598836 -473.83420181 486.05807686 C-473.8367323 483.4218354 -473.83288192 480.78567963 -473.82730103 478.14944458 C-473.82932526 477.3633934 -473.83134949 476.57734222 -473.83343506 475.76747131 C-473.81216984 470.36405526 -473.81216984 470.36405526 -472.69790649 468.13552856 C-472.43963158 465.9904427 -472.23239695 463.83913044 -472.04946899 461.68630981 C-471.92990617 460.34839872 -471.81010596 459.01050882 -471.69009399 457.67263794 C-471.5071559 455.58264276 -471.32664291 453.49250993 -471.15103149 451.40188599 C-470.40839073 442.64737503 -469.25527577 434.19790982 -467.42935181 425.59378052 C-466.7790721 422.51927718 -466.20148072 419.44730297 -465.67056274 416.35037231 C-464.11232105 407.2968543 -462.42434063 398.47507527 -459.76553345 389.67434692 C-459.41321655 388.50653687 -459.06089966 387.33872681 -458.69790649 386.13552856 C-458.18115356 384.46562866 -458.18115356 384.46562866 -457.65396118 382.76199341 C-454.3937874 371.2066938 -454.03601213 360.08921011 -453.94790649 348.13552856 C-453.91967063 346.1849822 -453.88973296 344.23445969 -453.85806274 342.28396606 C-453.78511541 337.56786442 -453.73499405 332.85204288 -453.69790649 328.13552856 C-449.07790649 328.13552856 -444.45790649 328.13552856 -439.69790649 328.13552856 C-439.36790649 326.81552856 -439.03790649 325.49552856 -438.69790649 324.13552856 C-435.77681288 315.94523147 -432.39790149 307.99922549 -428.69790649 300.13552856 C-428.04280122 298.72153896 -427.38786726 297.30746997 -426.73306274 295.89334106 C-413.3256653 267.0965045 -397.9262843 238.02620044 -378.04946899 213.13162231 C-375.51253548 209.89934988 -373.16902505 206.56903782 -370.82290649 203.19802856 C-366.43589255 196.94711995 -361.59858407 191.1874075 -356.57290649 185.44412231 C-354.01827519 182.52466404 -351.56539219 179.5349929 -349.13540649 176.51052856 C-340.91873565 166.41340605 -331.84144515 157.11233372 -322.62637329 147.93362427 C-320.99734077 146.31000627 -319.37379921 144.68103253 -317.75064087 143.05154419 C-312.23887076 137.53590136 -306.6544586 132.17365865 -300.69790649 127.13552856 C-299.56782883 126.15119472 -298.438893 125.16554822 -297.31118774 124.17849731 C-290.2033172 118.01253124 -282.96472689 112.10033496 -275.44009399 106.44802856 C-273.57129931 105.04014737 -271.71255854 103.61959507 -269.85415649 102.19802856 C-256.00526199 91.6482605 -241.52103256 82.25005857 -226.69790649 73.13552856 C-225.81747681 72.59283325 -224.93704712 72.05013794 -224.02993774 71.49099731 C-208.11267869 61.81266392 -191.73730314 53.03929521 -174.6078186 45.7048645 C-170.26117151 43.84148818 -166.01056842 41.8378549 -161.76040649 39.76052856 C-151.98529076 35.07238092 -141.67864216 31.68475147 -131.45864868 28.11209106 C-129.25819363 27.33371998 -127.07225029 26.53375405 -124.89321899 25.69802856 C-114.07564977 21.59760332 -102.86191513 18.87845626 -91.68374634 15.94900513 C-89.00583848 15.21942303 -86.36707021 14.41802176 -83.72134399 13.58084106 C-77.76709646 11.766544 -71.69555719 10.71599633 -65.57290649 9.63552856 C-63.15094749 9.20110082 -60.72907183 8.76620809 -58.30728149 8.33084106 C-57.15550415 8.12491333 -56.00372681 7.9189856 -54.81704712 7.70681763 C-52.33662224 7.25251313 -49.86816362 6.7729538 -47.40103149 6.25271606 C-37.10995041 4.11810318 -26.73403161 3.11839934 -16.28237915 2.13699341 C-15.05954224 2.02049438 -13.83670532 1.90399536 -12.57681274 1.78396606 C-11.46894409 1.68261353 -10.36107544 1.58126099 -9.21963501 1.47683716 C-5.91775521 1.02993737 -3.64013646 0.01386398 0 0 Z " fill="#FE1400" transform="translate(473.6979064941406,-0.135528564453125)"/>
<path d="M0 0 C28.38 0 56.76 0 86 0 C88.2461687 7.86159044 88.2461687 7.86159044 88.74609375 11.34765625 C88.85953125 12.11013672 88.97296875 12.87261719 89.08984375 13.65820312 C89.20457031 14.45162109 89.31929688 15.24503906 89.4375 16.0625 C90.29500968 21.75443925 91.23586567 27.38088982 92.5 33 C93.91609603 39.30605262 94.90785815 45.63439167 95.87060547 52.02099609 C96.76600134 57.83459793 97.98633548 63.5110844 99.3828125 69.2265625 C100.08342616 72.37488972 100.40594983 75.4579241 100.6953125 78.6640625 C101.06038271 81.46293408 101.70503809 84.13299096 102.375 86.875 C103.964693 93.44417253 105.01771529 100.0463436 105.99755859 106.72802734 C106.55105276 110.99214896 106.55105276 110.99214896 108 115 C108.18045833 116.32908989 108.32058429 117.66382043 108.4375 119 C109.39002658 128.18821795 111.69865816 137.07079367 114 146 C114.19335938 145.02160156 114.38671875 144.04320312 114.5859375 143.03515625 C114.84890503 141.71092691 115.11192892 140.38670877 115.375 139.0625 C115.63023437 137.77472656 115.88546875 136.48695313 116.1484375 135.16015625 C116.72554919 132.28215071 117.3595201 129.42254831 118.01953125 126.5625 C119.03166003 122.04703426 119.68827905 117.51997747 120.3125 112.9375 C121.57156064 104.11319271 123.29995228 95.4316304 125.16113281 86.71679688 C126.98227161 78.17420011 128.5457958 69.61130956 130 61 C130.52477325 57.90915264 131.05152645 54.81867082 131.58178711 51.72875977 C131.9385879 49.64905216 132.29236201 47.56882257 132.64282227 45.48803711 C132.80451904 44.54452393 132.96621582 43.60101074 133.1328125 42.62890625 C133.34768311 41.3615564 133.34768311 41.3615564 133.56689453 40.06860352 C134 38 134 38 135 36 C135.18045833 34.67091011 135.32058429 33.33617957 135.4375 32 C135.86049125 27.90023866 136.5487371 23.93026825 137.39453125 19.8984375 C138.42098709 14.98469406 139.35775074 10.05238999 140.31640625 5.125 C141 2 141 2 142 0 C170.05 0 198.1 0 227 0 C227.33 106.59 227.66 213.18 228 323 C231.81691834 299.39560233 231.81691834 299.39560233 235.5703125 275.78125 C235.67230831 275.1323027 235.77430412 274.48335541 235.87939072 273.81474304 C236.41536149 270.40364072 236.95048468 266.99240678 237.48486328 263.58105469 C237.91350819 260.84575921 238.3439359 258.11075313 238.77587891 255.37597656 C241.16838861 240.22441022 243.45334638 225.07162526 245.37841797 209.85253906 C246.14995443 203.76065561 247.049367 197.6913275 248 191.625 C248.22816406 190.13419922 248.22816406 190.13419922 248.4609375 188.61328125 C249.27218818 183.38004941 250.14322753 178.16170713 251.08239746 172.95016479 C252.78508405 163.4948745 254.19117742 154.01697969 255.5 144.5 C256.79481636 135.08486519 258.18810288 125.71134956 259.87901306 116.35855103 C261.15289983 109.2654538 262.22047808 102.14690007 263.25268555 95.01513672 C263.56354785 92.86776163 263.87814975 90.7209596 264.19335938 88.57421875 C265.17038763 81.8912349 266.1072581 75.2074238 266.96484375 68.5078125 C267.75621866 62.48271617 268.76816183 56.52354366 269.85360718 50.54690552 C271.45461738 41.63540854 272.64928714 32.66765642 273.87768555 23.69873047 C274.18755679 21.44455499 274.50184031 19.1910244 274.81640625 16.9375 C274.90604141 16.27169922 274.99567657 15.60589844 275.08802795 14.91992188 C275.59130664 11.32288437 276.23975336 7.79598943 277.03990173 4.25219727 C277.21976592 3.45266129 277.39963011 2.65312531 277.58494473 1.82936096 C277.79039709 0.92382729 277.79039709 0.92382729 278 0 C289.58688402 -0.02312228 301.17376259 -0.0409145 312.76066494 -0.05181217 C318.14033762 -0.05704125 323.51999458 -0.06413935 328.8996582 -0.07543945 C334.08674843 -0.08626745 339.27382349 -0.09227665 344.46092415 -0.09487724 C346.4445628 -0.09673165 348.42820058 -0.10035256 350.41183281 -0.10573006 C353.18009136 -0.11293932 355.94828638 -0.11399099 358.71655273 -0.11352539 C359.54517319 -0.11712067 360.37379364 -0.12071594 361.2275238 -0.12442017 C366.88594784 -0.11405216 366.88594784 -0.11405216 368 1 C368.38505847 3.22552355 368.71182188 5.46115513 369.015625 7.69921875 C369.21414991 9.13477154 369.41271964 10.57031814 369.61132812 12.00585938 C369.71517822 12.76793701 369.81902832 13.53001465 369.92602539 14.31518555 C371.60060391 26.57734038 373.40544398 38.80194973 375.5 51 C377.47737231 62.55091785 379.19228539 74.12157568 380.81048584 85.72668457 C382.43365937 97.34414741 384.28123683 108.90295933 386.26123047 120.46533203 C387.71369655 129.03337974 388.91009108 137.60892206 389.97924805 146.23217773 C390.80087424 152.75925063 391.91619326 159.15683792 393.18359375 165.61328125 C396.10108878 180.87319019 398.08473506 196.31022547 399.92578125 211.73022461 C400.72634286 218.26578773 401.86140543 224.60234811 403.25 231.0390625 C404.4789514 237.123012 405.11213753 243.30783365 405.875 249.46337891 C406.723349 256.19162595 407.86649595 262.7719761 409.19726562 269.42163086 C410.246475 275.08157039 410.90156392 280.79144837 411.59375 286.50390625 C411.73006836 287.61221802 411.86638672 288.72052979 412.00683594 289.86242676 C412.34011287 292.57468709 412.67111104 295.28720469 413 298 C413.00173625 297.37193673 413.0034725 296.74387346 413.00526136 296.09677798 C413.10818257 258.91214459 413.21627182 221.72752959 413.33111694 184.54293105 C413.34488731 180.08290142 413.35861429 175.62287165 413.37231445 171.1628418 C413.37504276 170.27489152 413.37777106 169.38694124 413.38058204 168.47208338 C413.4247146 154.07504504 413.46532836 139.6779988 413.50465261 125.28094662 C413.54504988 110.51957767 413.58920325 95.75822344 413.63687855 80.99687618 C413.66620171 71.88078029 413.69255882 62.76468556 413.71517897 53.64857053 C413.73094878 47.4060588 413.75035117 41.16356511 413.77266841 34.92107338 C413.78545498 31.31395074 413.79658417 27.70684208 413.80341911 24.09970284 C413.81085327 20.19828416 413.82590827 16.29691706 413.84178162 12.39552307 C413.84275972 11.24282427 413.84373783 10.09012547 413.84474558 8.9024964 C413.85022002 7.86593686 413.85569446 6.82937733 413.8613348 5.7614069 C413.86532186 4.40865322 413.86532186 4.40865322 413.86938947 3.02857119 C414 1 414 1 415 0 C416.37302146 -0.12346094 417.75219154 -0.17946148 419.13046265 -0.20773315 C420.46705177 -0.23797577 420.46705177 -0.23797577 421.8306427 -0.26882935 C422.81642807 -0.28565765 423.80221344 -0.30248596 424.81787109 -0.31982422 C425.85063675 -0.34085205 426.8834024 -0.36187988 427.94746399 -0.38354492 C437.54184152 -0.56745022 447.13747496 -0.67286156 456.7332058 -0.75568962 C463.17399261 -0.81206822 469.61225357 -0.89307172 476.05175781 -1.03564453 C482.28426896 -1.17306534 488.51450038 -1.24469935 494.74843216 -1.27234268 C497.11105245 -1.29364398 499.4735935 -1.33731732 501.83533859 -1.405056 C519.4408725 -1.88626679 529.59893685 1.59439142 543 13 C544.26168406 14.00694266 545.52735202 15.00892197 546.79769897 16.00491333 C557.84498198 24.67275585 567.42542835 35.18473507 575 47 C575.26932521 42.34947128 575.26932521 42.34947128 574 38 C573.72376771 36.40696402 573.49074611 34.80630288 573.28125 33.203125 C573.15363281 32.2440625 573.02601563 31.285 572.89453125 30.296875 C572.76433594 29.29140625 572.63414062 28.2859375 572.5 27.25 C572.24038994 25.27593542 571.97999471 23.30197392 571.71875 21.328125 C571.59628906 20.39291016 571.47382812 19.45769531 571.34765625 18.49414062 C571.08192344 16.58773167 570.75707328 14.68947429 570.40625 12.796875 C569.87865804 9.16460726 569.97563152 5.67120476 570 2 C578.71844003 1.97687389 587.43686956 1.95908354 596.15533352 1.94818783 C600.20325742 1.94295959 604.25116041 1.93586301 608.29907227 1.92456055 C612.20235971 1.91372957 616.10562699 1.90772272 620.0089283 1.90512276 C621.50133647 1.90326889 622.99374348 1.899649 624.48614311 1.89426994 C626.56948139 1.88705669 628.65273531 1.88600917 630.73608398 1.88647461 C632.51812477 1.88314369 632.51812477 1.88314369 634.33616638 1.87974548 C637 2 637 2 638 3 C638.16346226 4.55894559 638.27907115 6.1229461 638.375 7.6875 C638.72692739 11.99311171 639.39387309 16.04444039 640.375 20.25 C642.46546005 29.5092084 643.49731567 38.90208189 644.66357422 48.31396484 C645.12329023 51.98435348 645.61560796 55.64865055 646.125 59.3125 C646.34542969 60.91544922 646.34542969 60.91544922 646.5703125 62.55078125 C646.87905648 64.99638764 646.87905648 64.99638764 648 67 C648.400214 69.42920593 648.75799907 71.84995725 649.0859375 74.2890625 C649.23961288 75.39318985 649.23961288 75.39318985 649.39639282 76.5196228 C649.8337248 79.66209508 650.26311213 82.80563655 650.69238281 85.94921875 C652.00831562 95.54778743 653.49446861 105.06676713 655.375 114.57226562 C656.0795213 118.43612463 656.51037676 122.26481642 656.7890625 126.1796875 C656.9063128 128.09702874 656.9063128 128.09702874 658 130 C658.25437076 131.64558595 658.46329478 133.29831994 658.6484375 134.953125 C658.82354858 136.46072388 658.82354858 136.46072388 659.00219727 137.9987793 C659.12522217 139.07168213 659.24824707 140.14458496 659.375 141.25 C660.31797311 149.16104807 661.41862662 156.87379944 663.26123047 164.62792969 C664.00882082 168.04026212 664.57485802 171.43992743 665.08984375 174.89453125 C665.34882446 176.61893433 665.34882446 176.61893433 665.61303711 178.37817383 C665.74073486 179.24337646 665.86843262 180.1085791 666 181 C666.10546143 180.30140869 666.21092285 179.60281738 666.31958008 178.88305664 C666.81507975 175.6092099 667.31378879 172.33585901 667.8125 169.0625 C667.97814453 167.96486328 668.14378906 166.86722656 668.31445312 165.73632812 C669.28532364 159.379874 670.3385272 153.04613133 671.48046875 146.71875 C673.18009804 137.25644165 674.50016153 127.750535 675.80224609 118.22680664 C676.98014983 109.64480106 678.30351586 101.12953397 679.95166016 92.62463379 C681.04657448 86.91773193 681.82205476 81.20619765 682.5 75.4375 C683.43706261 67.85175504 684.65036733 60.46937763 686.25 52.99609375 C687.46692495 46.90988448 688.10774626 40.72766212 688.87060547 34.57202148 C689.76572462 27.4728209 690.93241085 20.4844862 692.3515625 13.47265625 C692.83242461 10.89743686 693.22525871 8.37864837 693.54052734 5.78295898 C693.76796631 3.91039429 693.76796631 3.91039429 694 2 C703.91665216 1.96710759 713.83330218 1.94830586 723.75 1.9375 C724.91942768 1.93621597 724.91942768 1.93621597 726.11248016 1.93490601 C760.95160629 1.90140695 795.78754606 2.18520373 830.625 2.5 C831.61733674 2.50896057 831.61733674 2.50896057 832.62972069 2.51810217 C849.75320664 2.67284109 866.87660234 2.83552139 884 3 C884 26.1 884 49.2 884 73 C866.18 73 848.36 73 830 73 C830 97.09 830 121.18 830 146 C847.82 146 865.64 146 884 146 C884 171.74 884 197.48 884 224 C866.18 224 848.36 224 830 224 C830 246.77 830 269.54 830 293 C847.82 293 865.64 293 884 293 C884 317.09 884 341.18 884 366 C844.4 366 804.8 366 764 366 C764 254.79 764 143.58 764 29 C763.34 29 762.68 29 762 29 C762.03480469 29.55945313 762.06960938 30.11890625 762.10546875 30.6953125 C762.32166596 37.09886789 761.29765926 42.74243493 759.85546875 48.96484375 C758.82650251 53.58647177 758.16834593 58.25243931 757.5 62.9375 C756.4869403 69.97044687 755.26807003 76.91157781 753.82421875 83.87109375 C752.74103358 89.1874473 751.81066469 94.53107006 750.875 99.875 C750.61891968 101.31999878 750.61891968 101.31999878 750.35766602 102.79418945 C749.5897811 107.21382773 748.90358311 111.60707774 748.4453125 116.0703125 C748 120 748 120 747 122 C746.79777644 123.66272703 746.63588613 125.33054185 746.5 127 C746.11111111 131.77777778 746.11111111 131.77777778 745 134 C744.73638526 135.47321538 744.51473885 136.95408486 744.31640625 138.4375 C744.19330078 139.33339844 744.07019531 140.22929687 743.94335938 141.15234375 C743.81767578 142.09207031 743.69199219 143.03179687 743.5625 144 C742.61584754 151.06232785 741.47682658 158.02847668 740 165 C738.30713268 173.06549353 736.79513168 181.09423946 735.625 189.25 C734.29046654 198.54546554 732.58823394 207.75452786 730.84082031 216.98022461 C729.38646782 224.72558674 728.13607524 232.47651694 727.0234375 240.27734375 C726.18875683 246.02525837 725.03138434 251.65028489 723.75 257.31640625 C722.82966321 261.83660205 722.15723343 266.37278509 721.5 270.9375 C720.48366913 277.98603418 719.25993107 284.94219174 717.81640625 291.91796875 C715.05876895 305.46012068 712.87190519 319.12705002 711.0390625 332.82275391 C710.25378056 338.60369101 709.18118495 344.28802722 708 350 C707.72549178 351.40709125 707.45320029 352.81461759 707.18359375 354.22265625 C706.93738281 355.48980469 706.69117188 356.75695312 706.4375 358.0625 C706.06431641 359.99802734 706.06431641 359.99802734 705.68359375 361.97265625 C705 365 705 365 704 366 C701.60190851 366.10027795 699.23260502 366.13618676 696.83398438 366.12939453 C695.70963737 366.13202301 695.70963737 366.13202301 694.56257629 366.13470459 C692.07294431 366.1391232 689.58338277 366.1361851 687.09375 366.1328125 C685.37121568 366.13348554 683.64868145 366.13445556 681.92614746 366.13571167 C678.31127012 366.13718865 674.69641745 366.13503407 671.08154297 366.13037109 C666.43733507 366.1246738 661.79318496 366.1279528 657.14897919 366.13394356 C653.59063274 366.13754916 650.0323001 366.13641059 646.47395325 366.13381577 C644.76105238 366.13314649 643.04815028 366.13397493 641.33525085 366.13629532 C638.94547178 366.13882183 636.55578759 366.1349813 634.16601562 366.12939453 C633.45117508 366.13141876 632.73633453 366.13344299 631.99983215 366.13552856 C627.11426269 366.11426269 627.11426269 366.11426269 626 365 C625.64840432 362.82328418 625.3534977 360.6373726 625.08203125 358.44921875 C624.90644613 357.06941143 624.73015335 355.68969402 624.55322266 354.31005859 C624.46236389 353.59541443 624.37150513 352.88077026 624.27789307 352.14447021 C623.48480085 346.02426485 622.57955233 339.91892726 621.6875 333.8125 C621.58050781 333.07878174 621.47351563 332.34506348 621.36328125 331.58911133 C619.74861774 320.56547109 617.90549972 309.60320547 615.88012695 298.64672852 C613.90688687 287.82680831 612.31650028 276.9602973 610.78710938 266.0703125 C609.73973566 258.66929289 608.53081033 251.3308534 607.1137085 243.99154663 C605.84515282 237.34810737 604.86874189 230.67269079 603.92254639 223.97689819 C602.05366417 210.77492255 599.98013037 197.62152031 597.74365234 184.47680664 C596.3209239 176.06951648 595.03326607 167.6531305 593.89990234 159.2019043 C593.46688961 156.01278851 593.0204691 153.0614073 592 150 C591.9314505 148.10529184 591.91519628 146.2083166 591.9375 144.3125 C591.94652344 143.31863281 591.95554687 142.32476562 591.96484375 141.30078125 C591.98224609 140.16189453 591.98224609 140.16189453 592 139 C591.34 139 590.68 139 590 139 C590.12375 140.9490625 590.12375 140.9490625 590.25 142.9375 C590.16644861 172.64001865 573.04542107 204.33205033 553 225 C552.19046875 225.5878125 551.3809375 226.175625 550.546875 226.78125 C548.80860842 228.80402271 548.80860842 228.80402271 549.05737305 230.86132812 C550.30397918 237.11586398 552.76094371 243.07329618 555.0625 249 C555.87779229 251.13484816 556.69154723 253.27028394 557.50390625 255.40625 C557.91914551 256.49679687 558.33438477 257.58734375 558.76220703 258.7109375 C560.73480799 263.95253122 562.61778774 269.22541397 564.5 274.5 C567.467362 282.79993748 570.50915708 291.06717417 573.625 299.3125 C576.6427925 307.30138219 579.54010714 315.31973082 582.32543945 323.39233398 C585.06954648 331.30022861 588.014369 339.13009913 590.98046875 346.95703125 C591.99427835 349.63535802 592.99960083 352.31664047 594 355 C594.62455078 356.67449219 594.62455078 356.67449219 595.26171875 358.3828125 C596 361 596 361 596 366 C573.23 366 550.46 366 527 366 C524.69 359.73 522.38 353.46 520 347 C518.14504427 342.02774789 518.14504427 342.02774789 516.28833008 337.05615234 C512.29618566 326.35402164 508.44948505 315.61610501 504.76635742 304.80395508 C502.30416057 297.63029966 499.73040794 290.50468216 497.1015625 283.390625 C496.75967392 282.46400055 496.41778534 281.5373761 496.0655365 280.58267212 C494.34452064 275.92142674 492.61567168 271.26328332 490.8762207 266.60888672 C490.23886863 264.88777914 489.60173314 263.16659134 488.96484375 261.4453125 C488.66530792 260.65167297 488.36577209 259.85803345 488.05715942 259.04034424 C487.64976028 257.93393585 487.64976028 257.93393585 487.23413086 256.80517578 C486.87513954 255.84359055 486.87513954 255.84359055 486.50889587 254.86257935 C486 253 486 253 486 249 C485.34 249 484.68 249 484 249 C484 287.61 484 326.22 484 366 C441.76 366 399.52 366 356 366 C354.34097227 362.68194453 353.50550125 360.36462671 352.74609375 356.82421875 C352.53146484 355.83099609 352.31683594 354.83777344 352.09570312 353.81445312 C351.87849609 352.78255859 351.66128906 351.75066406 351.4375 350.6875 C351.21642578 349.66720703 350.99535156 348.64691406 350.76757812 347.59570312 C349.65342506 342.38846811 348.75524326 337.28670279 348 332 C331.5 332 315 332 298 332 C296.68 337.94 295.36 343.88 294 350 C290.2254902 364.7745098 290.2254902 364.7745098 289 366 C287.32975331 366.09614133 285.65541724 366.12187722 283.98240662 366.12025452 C282.89787673 366.12163201 281.81334684 366.12300951 280.69595242 366.12442875 C278.88857145 366.11903159 278.88857145 366.11903159 277.04467773 366.11352539 C275.76588525 366.11364593 274.48709276 366.11376646 273.16954899 366.11389065 C269.6992129 366.11411712 266.22891105 366.1083063 262.75858307 366.10128021 C259.50641471 366.09560031 256.25424792 366.09531791 253.0020752 366.09460449 C243.48054557 366.08934971 233.95902236 366.07538865 224.4375 366.0625 C203.173125 366.041875 181.90875 366.02125 160 366 C160 323.1 160 280.2 160 236 C159.34 236 158.68 236 158 236 C158.03407959 237.17570557 158.06815918 238.35141113 158.10327148 239.56274414 C158.09835269 243.59510698 157.41440111 247.09183433 156.34765625 250.99609375 C155.97575933 252.40158282 155.6062867 253.8077148 155.23876953 255.21435547 C154.93848846 256.35768341 154.93848846 256.35768341 154.63214111 257.52410889 C153.44453353 262.17558148 152.38188194 266.85622954 151.30859375 271.53515625 C151.07508209 272.55137054 150.84157043 273.56758484 150.60098267 274.61459351 C150.12103417 276.70651781 149.64182407 278.79861166 149.16333008 280.89086914 C148.43776602 284.06133759 147.70828234 287.23088722 146.97851562 290.40039062 C144.71805199 300.25020668 142.50339351 310.09526635 140.61157227 320.02319336 C139.83932176 323.78209571 138.80356769 327.43751308 137.75 331.125 C136.85375247 334.56061551 136.17466299 338.01424122 135.5 341.5 C134.46123395 346.85698723 133.25508376 352.09674288 131.74609375 357.33984375 C130.75517638 360.87290517 129.88995837 364.44016653 129 368 C118.77 368 108.54 368 98 368 C96.515 360.575 96.515 360.575 95 353 C93.89130475 348.93294755 93.89130475 348.93294755 92.75 344.875 C91.52274906 340.17053805 90.67265521 335.39295116 89.75 330.62109375 C89.11354269 327.54819831 88.36980343 324.5751004 87.5 321.5625 C86.21140621 317.06584458 85.31891238 312.53855069 84.5 307.9375 C83.5635439 302.6857859 82.37332366 297.6565077 80.7421875 292.578125 C79.49099117 288.23186405 78.74010089 283.78614644 77.88671875 279.34765625 C76.52939679 272.50000712 74.825775 265.72888414 73.18359375 258.9453125 C72.39435532 255.66314924 71.61133482 252.37986789 70.85546875 249.08984375 C70.69328857 248.38722412 70.5311084 247.68460449 70.36401367 246.96069336 C69.86798122 244.28890487 69.86118487 241.70689498 70 239 C69.34 239 68.68 239 68 239 C68 280.91 68 322.82 68 366 C17 366 17 366 12 365 C10.16554412 362.24831619 9.44316943 360.47947732 8.578125 357.36328125 C7.63100218 354.08099031 6.62586016 350.86503745 5.421875 347.66796875 C0.3460246 334.12682195 -2.98000766 320.32263788 -6.22070312 306.24462891 C-6.92001739 303.33301032 -7.69496404 300.46127228 -8.515625 297.58203125 C-10.41875262 290.72039341 -11.722325 283.75049812 -13 276.75 C-13.19509659 275.69365356 -13.19509659 275.69365356 -13.39413452 274.6159668 C-15.65276798 262.27452593 -17.12232376 249.93705502 -18.15039062 237.43652344 C-18.25158203 236.2096582 -18.35277344 234.98279297 -18.45703125 233.71875 C-18.53928955 232.63529297 -18.62154785 231.55183594 -18.70629883 230.43554688 C-18.73910736 228.05510444 -18.73910736 228.05510444 -20 227 C-20.1004346 224.36327189 -20.13616846 221.75271184 -20.12939453 219.11547852 C-20.13114685 218.28949158 -20.13289917 217.46350464 -20.13470459 216.61248779 C-20.13912443 213.86793956 -20.13618439 211.1234552 -20.1328125 208.37890625 C-20.13348557 206.47940559 -20.13445561 204.57990502 -20.13571167 202.68040466 C-20.13718887 198.69309675 -20.1350336 194.70581118 -20.13037109 190.71850586 C-20.12467766 185.59909311 -20.12795023 180.47973282 -20.13394356 175.360322 C-20.13755186 171.43563947 -20.13640927 167.51096944 -20.13381577 163.58628654 C-20.13314704 161.69837373 -20.13397302 159.8104598 -20.13629532 157.92254829 C-20.13882581 155.28630684 -20.13497543 152.65015107 -20.12939453 150.01391602 C-20.13141876 149.22786484 -20.13344299 148.44181366 -20.13552856 147.63194275 C-20.11426335 142.22852669 -20.11426335 142.22852669 -19 140 C-18.74172508 137.85491414 -18.53449045 135.70360188 -18.3515625 133.55078125 C-18.23199968 132.21287015 -18.11219947 130.87498026 -17.9921875 129.53710938 C-17.8092494 127.4471142 -17.62873641 125.35698136 -17.453125 123.26635742 C-16.71048423 114.51184646 -15.55736928 106.06238126 -13.73144531 97.45825195 C-13.08116561 94.38374861 -12.50357422 91.3117744 -11.97265625 88.21484375 C-10.19450831 77.88365159 -8.03240543 68.044843 -5 58 C0.63280295 37.95503618 0.63280295 37.95503618 0 0 Z " fill="#FEFEFE" transform="translate(20,328)"/>
<path d="M0 0 C21.45 0 42.9 0 65 0 C65 95.7 65 191.4 65 290 C69.95 290 74.9 290 80 290 C81.98 290.33 83.96 290.66 86 291 C84.10455293 309.88596054 77.7934206 328.32714878 71.625 346.1875 C71.35456879 346.97146149 71.08413757 347.75542297 70.80551147 348.56314087 C70.03481859 350.78760292 69.25782078 353.00969741 68.4765625 355.23046875 C68.24142441 355.90206024 68.00628632 356.57365173 67.76402283 357.26559448 C66.11972352 361.88027648 66.11972352 361.88027648 65 363 C43.55 363 22.1 363 0 363 C0 243.21 0 123.42 0 0 Z " fill="#FEFEFE" transform="translate(926,331)"/>
<path d="M0 0 C0.33 0 0.66 0 1 0 C1.00410889 0.61818604 1.00821777 1.23637207 1.01245117 1.87329102 C1.14623865 13.40577153 1.51902127 23.65849256 5.6796875 34.5 C7.78260945 40.07460968 9.04084899 45.85125012 10.42138672 51.63574219 C11.0679325 54.27757737 11.75244059 56.90797669 12.44140625 59.5390625 C23.71982823 102.86988256 32.09099747 155.03489944 26.24577332 199.8878479 C25.85266669 203.26616825 25.69421633 206.655244 25.53515625 210.05078125 C25.45662119 211.56967394 25.37783733 213.08855378 25.29882812 214.60742188 C25.17973186 216.95682188 25.06279773 219.30627353 24.95043945 221.65600586 C24.55728218 229.78267762 24.07590952 237.6734053 22.43920898 245.66381836 C21.78191412 249.16001325 21.64363324 252.57007741 21.5 256.125 C21.25090701 261.21763436 20.75851247 266.03172795 19.46875 270.97265625 C18.7754276 273.97127563 18.56348282 276.98941466 18.34375 280.0546875 C18 282 18 282 16 285 C16 285.99 16 286.98 16 288 C17.65 288.33 19.3 288.66 21 289 C21.33 286.69 21.66 284.38 22 282 C22.33 282 22.66 282 23 282 C22.67 284.64 22.34 287.28 22 290 C14.74 289.67 7.48 289.34 0 289 C0 193.63 0 98.26 0 0 Z " fill="#FE1500" transform="translate(991,332)"/>
<path d="M0 0 C0.66 0 1.32 0 2 0 C1.99962028 0.54299244 1.99924056 1.08598488 1.99884933 1.64543164 C1.97637876 33.96355142 1.95926705 66.28166911 1.94893467 98.59979493 C1.94768425 102.49670575 1.9463899 106.39361655 1.94506836 110.29052734 C1.94467489 111.45403498 1.94467489 111.45403498 1.94427348 112.64104782 C1.93994459 125.13351204 1.93207264 137.62597156 1.9228472 150.11843301 C1.91343278 162.97585868 1.90792806 175.83328193 1.90591151 188.6907109 C1.9045523 196.59831689 1.90029016 204.50590961 1.89208353 212.4135115 C1.88607742 218.51887384 1.88556041 224.62422648 1.88689232 230.72959137 C1.88662136 233.20355434 1.88468926 235.6775179 1.88079453 238.15147781 C1.85393531 256.12249012 2.30295849 274.04486943 3 292 C0.40429248 289.40429248 0.20849579 287.41669086 -0.62109375 283.84765625 C-0.91693359 282.59533203 -1.21277344 281.34300781 -1.51757812 280.05273438 C-1.82457556 278.72273856 -2.13121425 277.39265989 -2.4375 276.0625 C-3.03879304 273.49051751 -3.64163588 270.9188968 -4.24609375 268.34765625 C-4.54112793 267.08937012 -4.83616211 265.83108398 -5.14013672 264.53466797 C-5.87734204 261.50421409 -6.68035942 258.51046854 -7.53515625 255.51171875 C-9.43160084 248.67405597 -10.72679818 241.72598918 -12 234.75 C-12.19509659 233.69365356 -12.19509659 233.69365356 -12.39413452 232.6159668 C-14.65276798 220.27452593 -16.12232376 207.93705502 -17.15039062 195.43652344 C-17.25158203 194.2096582 -17.35277344 192.98279297 -17.45703125 191.71875 C-17.53928955 190.63529297 -17.62154785 189.55183594 -17.70629883 188.43554688 C-17.73910736 186.05510444 -17.73910736 186.05510444 -19 185 C-19.1004346 182.36327189 -19.13616846 179.75271184 -19.12939453 177.11547852 C-19.13114685 176.28949158 -19.13289917 175.46350464 -19.13470459 174.61248779 C-19.13912443 171.86793956 -19.13618439 169.1234552 -19.1328125 166.37890625 C-19.13348557 164.47940559 -19.13445561 162.57990502 -19.13571167 160.68040466 C-19.13718887 156.69309675 -19.1350336 152.70581118 -19.13037109 148.71850586 C-19.12467766 143.59909311 -19.12795023 138.47973282 -19.13394356 133.360322 C-19.13755186 129.43563947 -19.13640927 125.51096944 -19.13381577 121.58628654 C-19.13314704 119.69837373 -19.13397302 117.8104598 -19.13629532 115.92254829 C-19.13882581 113.28630684 -19.13497543 110.65015107 -19.12939453 108.01391602 C-19.13141876 107.22786484 -19.13344299 106.44181366 -19.13552856 105.63194275 C-19.11426335 100.22852669 -19.11426335 100.22852669 -18 98 C-17.74172508 95.85491414 -17.53449045 93.70360188 -17.3515625 91.55078125 C-17.23199968 90.21287015 -17.11219947 88.87498026 -16.9921875 87.53710938 C-16.8092494 85.4471142 -16.62873641 83.35698136 -16.453125 81.26635742 C-15.71048423 72.51184646 -14.55736928 64.06238126 -12.73144531 55.45825195 C-12.08116561 52.38374861 -11.50357422 49.3117744 -10.97265625 46.21484375 C-9.40620114 37.11360511 -7.71887927 28.24546238 -5.015625 19.40625 C-3.80323734 15.3400883 -2.76630757 11.24376791 -1.75 7.125 C-1.48703125 6.06079834 -1.48703125 6.06079834 -1.21875 4.97509766 C-0.81055326 3.31720988 -0.40497581 1.65867751 0 0 Z " fill="#FE0803" transform="translate(19,370)"/>
<path d="M0 0 C13.55841926 -0.69332826 26.36736494 2.58480909 39.4765625 5.58666992 C44.01000929 6.61014481 48.51772867 7.42334097 53.125 8.0625 C58.12754447 8.77714921 62.36312607 10.05674578 67 12 C71.45091669 13.64667614 75.8061276 15.01799845 80.48828125 15.8203125 C86.80595897 17.05321476 92.75783871 19.1593588 98.8125 21.3125 C99.96596924 21.71839355 101.11943848 22.12428711 102.30786133 22.54248047 C105.5420716 23.68547432 108.77203654 24.83949836 112 26 C112.7331543 26.26248535 113.46630859 26.5249707 114.22167969 26.79541016 C122.27312868 29.70156716 130.00905411 33.21570457 137.72265625 36.91210938 C140.30032805 38.14346717 142.88441574 39.36081445 145.46875 40.578125 C167.89941013 51.17683682 189.58610736 62.66805098 210.08349609 76.68945312 C212.11006481 78.0752647 214.14275514 79.45180716 216.17578125 80.828125 C217.57590511 81.78068542 218.97565402 82.73379722 220.375 83.6875 C221.0047876 84.11474365 221.6345752 84.5419873 222.28344727 84.98217773 C226.54613967 87.9067452 230.64093371 91.00661659 234.70605469 94.19946289 C236.94729067 95.958628 239.20326351 97.69678513 241.46484375 99.4296875 C249.6005524 105.68675452 257.47775892 112.01304949 265 119 C266.32971825 120.1500266 267.66295928 121.29599488 269 122.4375 C273.05684485 125.96270188 276.79367008 129.77714501 280.56640625 133.6015625 C282.6276938 135.63307222 284.72186556 137.51731059 286.9375 139.375 C291.88047424 143.6160719 296.12581546 148.48898368 300.47314453 153.3203125 C302.60459865 155.66511652 304.77813022 157.96929402 306.94921875 160.27734375 C327.23806185 181.89040038 344.5689967 206.34599006 360.3515625 231.390625 C361.4812414 233.1788371 362.6224859 234.95978002 363.7734375 236.734375 C367.83202788 243.00835314 371.49414565 249.40379997 375 256 C375.59425781 257.08539063 376.18851563 258.17078125 376.80078125 259.2890625 C384.93316925 274.18912149 392.07513768 289.53095881 398.625 305.1875 C399.06312012 306.23349365 399.50124023 307.2794873 399.95263672 308.35717773 C403 315.74221269 403 315.74221269 403 318 C383.86 318 364.72 318 345 318 C345 317.67 345 317.34 345 317 C361.5 316.67 378 316.34 395 316 C392.87040416 309.61121247 390.67397309 303.54305072 388.0625 297.375 C387.72798828 296.56804687 387.39347656 295.76109375 387.04882812 294.9296875 C385.27730956 290.72446423 383.37662378 286.7305388 381.05151367 282.80517578 C378.94656674 279.19152879 377.06022432 275.45639625 375.125 271.75 C369.63541934 261.29317938 364.07844594 250.97407297 357.83203125 240.9453125 C357.22746094 239.97335938 356.62289063 239.00140625 356 238 C355.42636719 237.08992187 354.85273437 236.17984375 354.26171875 235.2421875 C353 233 353 233 353 231 C352.34 231 351.68 231 351 231 C350.1646875 229.48599609 350.1646875 229.48599609 349.3125 227.94140625 C347.1103241 224.0885677 344.61645853 220.51729099 342 216.9375 C333 204.54204545 333 204.54204545 333 202 C332.01 201.67 331.02 201.34 330 201 C328.97388051 199.34928604 327.97691857 197.68029994 327 196 C326.401875 195.401875 325.80375 194.80375 325.1875 194.1875 C323.35664516 192.35664516 321.95128452 190.64177873 320.4375 188.5625 C317.11744606 184.03049836 313.47425003 179.79924446 309.78295898 175.56860352 C307.4402696 172.85045944 305.38933448 170.32794074 304 167 C303.34 167 302.68 167 302 167 C302 166.34 302 165.68 302 165 C301.34 165 300.68 165 300 165 C295 159.52380952 295 159.52380952 295 157 C294.39800781 156.73703125 293.79601562 156.4740625 293.17578125 156.203125 C290.8810142 154.93420534 289.78861649 153.79869084 288.1875 151.75 C285.63545721 148.64372569 282.92765063 146.08284391 279.80859375 143.5546875 C277.40869068 141.49170386 275.22088311 139.25412986 273 137 C271.27208216 135.24876692 269.54292776 133.49875302 267.8125 131.75 C266.52279297 130.44289062 266.52279297 130.44289062 265.20703125 129.109375 C263.18568934 126.97005762 263.18568934 126.97005762 261 126 C261 125.34 261 124.68 261 124 C260.1646875 123.5978125 260.1646875 123.5978125 259.3125 123.1875 C254.37991627 120.6545516 250.92216448 117.9278653 247 114 C234.52884451 102.26999432 234.52884451 102.26999432 220 94 C220 93.34 220 92.68 220 92 C219.25878906 91.72800781 218.51757812 91.45601563 217.75390625 91.17578125 C215.14214383 90.06068836 213.21223349 88.86697613 210.9375 87.1875 C195.83076687 76.44147334 180.16824634 67.08930322 163.76367188 58.46191406 C161.26248644 57.13884884 158.77690215 55.79188046 156.296875 54.4296875 C148.01082791 49.90201821 139.63974678 46.03663256 130.86328125 42.5546875 C127.62473044 41.26871131 124.46513131 39.86130642 121.3125 38.375 C116.04572034 35.93057097 110.62864936 34.02906339 105.1484375 32.12109375 C102.86059119 31.3064388 100.6052051 30.3987953 98.375 29.4375 C95.31421646 28.13383294 92.28711807 27.08740762 89.125 26.0625 C84.56096135 24.57733098 80.25571312 22.83546873 75.91015625 20.80859375 C73.65433066 19.85367371 71.39978363 19.44995943 69 19 C68.505 18.01 68.505 18.01 68 17 C61.27755621 13.83649704 54.3296405 12.631579 47 12 C47 11.67 47 11.34 47 11 C44.36 10.67 41.72 10.34 39 10 C39 9.34 39 8.68 39 8 C37.329375 8.061875 37.329375 8.061875 35.625 8.125 C30.62963398 8.13393625 25.82090234 7.28745345 21 6 C20.67 5.67 20.34 5.34 20 5 C18.17093765 4.79162581 16.33611866 4.63250341 14.5 4.5 C9.11111111 4.11111111 9.11111111 4.11111111 8 3 C6.65252916 2.76924918 5.29622435 2.58846937 3.9375 2.4375 C2.638125 2.293125 1.33875 2.14875 0 2 C0 1.34 0 0.68 0 0 Z " fill="#FF7C11" transform="translate(581,13)"/>
<path d="M0 0 C12.49025745 1.38780638 19.0940169 5.93971659 27.05859375 15.4609375 C35.22958577 26.60160189 38.39897801 38.637694 38.3125 52.3125 C38.30512817 53.69779907 38.30512817 53.69779907 38.29760742 55.11108398 C38.17784909 62.1031284 37.38583342 68.38865438 35 75 C34.64808594 76.01320313 34.29617188 77.02640625 33.93359375 78.0703125 C29.65409185 89.34107987 22.57905697 99.05464245 11.5 104.3125 C7.4830908 106.08863336 4.67811669 106.33169762 0 107 C0 71.69 0 36.38 0 0 Z " fill="#FE0101" transform="translate(504,397)"/>
<path d="M0 0 C2.5459815 3.81897225 3.62599692 7.64585325 5 12 C5.33386719 12.99773437 5.66773438 13.99546875 6.01171875 15.0234375 C8.18649338 21.70137 9.65355542 28.15147279 10.5078125 35.125 C11.00033917 38.00198116 11.91212436 40.30359229 13 43 C13.36709001 44.92790234 13.6753435 46.86754847 13.9375 48.8125 C14.64389566 53.74071344 15.48123958 58.61410694 16.4375 63.5 C17.68278836 69.97694003 18.73097277 76.4743205 19.6875 83 C19.88460571 84.30807617 19.88460571 84.30807617 20.08569336 85.64257812 C20.64848651 89.58250815 21.06831114 93.39161551 21.01953125 97.375 C20.83442969 100.71802953 20.83442969 100.71802953 21.48771667 102.7297821 C22.25132219 106.11375112 22.16463287 109.49647031 22.17700195 112.94848633 C22.18685875 114.14751083 22.18685875 114.14751083 22.19691467 115.37075806 C22.21665501 118.02451698 22.22833145 120.67821837 22.23828125 123.33203125 C22.24235678 124.24950323 22.2464323 125.16697521 22.25063133 126.11224937 C22.27152623 130.99792631 22.28579556 135.88357514 22.29516602 140.76928711 C22.30391095 144.74991718 22.32450049 148.73018495 22.35668945 152.71069336 C22.54496115 176.50353127 21.94676978 199.49934175 18 223 C17.64367749 225.1962012 17.28739373 227.39240869 16.93115234 229.58862305 C16.03231008 235.07439952 15.02924014 240.53742203 14 246 C13.76047607 247.30783447 13.76047607 247.30783447 13.51611328 248.64208984 C11.62307681 258.95289253 9.28820185 268.95175261 6.19921875 278.96875 C5.06153741 282.69432439 4.1770227 286.45097069 3.3125 290.25 C-5.24930983 325.68588308 -21.20451735 360.10461991 -38.43896484 392.06835938 C-40.71170476 396.33658911 -42.86834186 400.65992209 -45 405 C-45.66 405 -46.32 405 -47 405 C-47.28875 405.721875 -47.5775 406.44375 -47.875 407.1875 C-48.91666667 409.79166667 -49.95833333 412.39583333 -51 415 C-51.66 415 -52.32 415 -53 415 C-53.268125 415.70125 -53.53625 416.4025 -53.8125 417.125 C-55.0681449 420.1649824 -56.50235123 423.0727774 -58 426 C-58.66 426 -59.32 426 -60 426 C-60.2475 426.680625 -60.495 427.36125 -60.75 428.0625 C-62.83872683 432.97100805 -65.19972726 437.21835605 -69 441 C-72.78426317 445.85923862 -76.30326873 450.90725331 -79.67578125 456.05859375 C-80.12429443 456.74276367 -80.57280762 457.42693359 -81.03491211 458.13183594 C-81.92125873 459.49147131 -82.80110614 460.85536792 -83.67407227 462.22363281 C-84.73210951 463.84982446 -85.86015517 465.43006502 -87 467 C-87.66 467 -88.32 467 -89 467 C-89.33 467.99 -89.66 468.98 -90 470 C-90.66 470 -91.32 470 -92 470 C-92.24621094 470.55558594 -92.49242187 471.11117188 -92.74609375 471.68359375 C-94.24004406 474.44344588 -96.05058408 476.65316859 -98.0625 479.0625 C-98.77535156 479.91972656 -99.48820313 480.77695312 -100.22265625 481.66015625 C-100.64764404 482.16538818 -101.07263184 482.67062012 -101.51049805 483.19116211 C-102.60584399 484.52134046 -103.67683911 485.87166506 -104.73364258 487.23266602 C-111.34134044 495.61507053 -118.77788931 503.08210802 -126.33862305 510.59936523 C-128.56860538 512.81857589 -130.78762825 515.04834682 -133.00585938 517.27929688 C-134.44206716 518.71418372 -135.87889486 520.1484504 -137.31640625 521.58203125 C-137.96871719 522.23839066 -138.62102814 522.89475006 -139.29310608 523.57099915 C-143.06405912 527.30427846 -146.94336812 530.60532573 -151.25767517 533.69804382 C-153.75775745 535.56623597 -155.85543615 537.73951378 -158 540 C-161.12564407 543.28192627 -163.94958398 545.92005664 -168 548 C-168.66 548 -169.32 548 -170 548 C-170.226875 548.78375 -170.45375 549.5675 -170.6875 550.375 C-172 553 -172 553 -174.5625 554.1875 C-175.366875 554.455625 -176.17125 554.72375 -177 555 C-177.33 555.66 -177.66 556.32 -178 557 C-178.66 557 -179.32 557 -180 557 C-180 557.66 -180 558.32 -180 559 C-181.051875 559.4125 -182.10375 559.825 -183.1875 560.25 C-186.59732449 561.70348074 -189.18162798 563.57306854 -192 566 C-192.99 566.66 -193.98 567.32 -195 568 C-195.33 568.99 -195.66 569.98 -196 571 C-197.175625 571.1546875 -197.175625 571.1546875 -198.375 571.3125 C-201.33045181 571.77595022 -201.33045181 571.77595022 -203 575 C-205.4609375 576.53515625 -205.4609375 576.53515625 -208.375 578.0625 C-209.33148437 578.56910156 -210.28796875 579.07570313 -211.2734375 579.59765625 C-212.91289884 580.4408749 -214.56156561 581.26698997 -216.2265625 582.05859375 C-218.17975255 582.98440435 -218.17975255 582.98440435 -220 585 C-221.33333333 585.66666667 -222.66666667 586.33333333 -224 587 C-224.66 587.66 -225.32 588.32 -226 589 C-226.845625 589.33 -227.69125 589.66 -228.5625 590 C-231.14841441 590.74870114 -231.14841441 590.74870114 -232 593 C-234.11689398 594.05988705 -236.26907653 595.04997876 -238.4375 596 C-243.09668861 597.94428842 -243.09668861 597.94428842 -247 601 C-247.66 601 -248.32 601 -249 601 C-249.61875 601.66 -250.2375 602.32 -250.875 603 C-253 605 -253 605 -257 605 C-257 605.66 -257 606.32 -257 607 C-258.19665283 607.44243042 -258.19665283 607.44243042 -259.41748047 607.89379883 C-267.17922708 610.8137157 -274.64913473 614.10859087 -282.125 617.6875 C-328.80728895 639.59398825 -380.33218144 653.09641054 -431.4921875 658.79614258 C-432.16627151 658.87131104 -432.84035553 658.94647949 -433.53486633 659.02392578 C-435.35897757 659.22489604 -437.18374205 659.41991187 -439.00854492 659.61450195 C-441.8474418 659.91431847 -441.8474418 659.91431847 -443.94978333 660.51615715 C-447.40581616 661.33176693 -450.93572323 661.1383096 -454.46875 661.12939453 C-455.32122314 661.13114685 -456.17369629 661.13289917 -457.05200195 661.13470459 C-459.86802205 661.13910343 -462.68397927 661.13619202 -465.5 661.1328125 C-467.45768241 661.1334861 -469.41536475 661.1344566 -471.37304688 661.13571167 C-475.47526852 661.13718598 -479.57746839 661.13504264 -483.6796875 661.13037109 C-488.93894179 661.12467398 -494.19814504 661.1279544 -499.45739746 661.13394356 C-503.49967839 661.13755636 -507.54194722 661.13640727 -511.58422852 661.13381577 C-513.52351894 661.13314849 -515.46281047 661.13396797 -517.40209961 661.13629532 C-520.11184605 661.13883359 -522.82150973 661.1349646 -525.53125 661.12939453 C-526.33344971 661.13141876 -527.13564941 661.13344299 -527.9621582 661.13552856 C-531.48961679 661.1220899 -534.60311481 660.90555321 -538 660 C-539.58151903 659.82569692 -541.16696021 659.68514397 -542.75390625 659.5703125 C-543.68074219 659.49901123 -544.60757813 659.42770996 -545.5625 659.35424805 C-546.5525 659.27859619 -547.5425 659.20294434 -548.5625 659.125 C-566.18050502 657.66556107 -583.14603196 654.45689769 -600.37841797 650.57055664 C-602.85409569 650.03175437 -605.33425544 649.55340672 -607.82421875 649.0859375 C-614.23190546 647.8193091 -620.47816773 645.99744647 -626.75 644.1875 C-627.98540527 643.83220215 -629.22081055 643.4769043 -630.49365234 643.11083984 C-653.60528208 636.39471792 -653.60528208 636.39471792 -657 633 C-642.16914412 636.22708438 -642.16914412 636.22708438 -635.84765625 638.3828125 C-622.06949215 643.00691387 -608.38612298 646.56331115 -593.99584961 648.70678711 C-593.0394458 648.84995361 -592.08304199 648.99312012 -591.09765625 649.140625 C-590.25726807 649.25954102 -589.41687988 649.37845703 -588.55102539 649.50097656 C-586 650 -586 650 -583.08276367 651.00268555 C-579.86277636 652.04439365 -576.94175778 652.47959422 -573.578125 652.81640625 C-571.79341797 653.00299805 -571.79341797 653.00299805 -569.97265625 653.19335938 C-568.74417969 653.31517578 -567.51570313 653.43699219 -566.25 653.5625 C-563.79652783 653.81038968 -561.34338045 654.06152252 -558.890625 654.31640625 C-557.80813477 654.42412354 -556.72564453 654.53184082 -555.61035156 654.64282227 C-553 655 -553 655 -551 656 C-548.51703674 656.20715337 -546.04957232 656.37365766 -543.5625 656.5 C-536.40265363 656.86578212 -536.40265363 656.86578212 -533 658 C-530.37898755 658.09618288 -527.78481861 658.13644193 -525.16381836 658.12939453 C-524.36680008 658.13114685 -523.5697818 658.13289917 -522.74861145 658.13470459 C-520.11233345 658.13910837 -517.47612244 658.13619056 -514.83984375 658.1328125 C-513.01046231 658.1334859 -511.18108096 658.13445622 -509.35169983 658.13571167 C-505.51757963 658.13718659 -501.68348273 658.13504043 -497.84936523 658.13037109 C-492.92730579 658.12466991 -488.00530082 658.12795658 -483.08324337 658.13394356 C-479.30611254 658.13755128 -475.5289947 658.13640968 -471.75186348 658.13381577 C-469.93651892 658.13314729 -468.1211732 658.13397216 -466.30583 658.13629532 C-463.77278376 658.13882572 -461.23982669 658.13497593 -458.70678711 658.12939453 C-457.95193024 658.13141876 -457.19707336 658.13344299 -456.41934204 658.13552856 C-452.58283364 658.18848291 -452.58283364 658.18848291 -449 657 C-446.69067477 656.79396355 -444.37713617 656.63376638 -442.0625 656.5 C-436.94190165 656.21849611 -436.94190165 656.21849611 -432 655 C-430.06537798 654.8199687 -428.12694387 654.67967972 -426.1875 654.5625 C-415.99738484 653.82654724 -406.17974473 652.4122725 -396.30859375 649.77734375 C-392.3333795 648.8433796 -388.34704103 648.23914728 -384.3125 647.625 C-376.89934119 646.46068209 -369.89495848 644.67368042 -362.73828125 642.4453125 C-358.14472124 641.01770513 -353.51015351 639.76435499 -348.86743164 638.50756836 C-336.97170047 635.26962934 -325.46498834 631.51903052 -314 627 C-313.03594238 626.62472168 -312.07188477 626.24944336 -311.07861328 625.86279297 C-296.86185034 620.32225605 -282.80586451 614.50152827 -269 608 C-267.99163086 607.52578613 -267.99163086 607.52578613 -266.96289062 607.04199219 C-248.30341257 598.18014378 -230.43472048 587.62699812 -213.12548828 576.38037109 C-211.12974079 575.08425849 -209.1260539 573.80132337 -207.12109375 572.51953125 C-197.69153435 566.42687112 -188.89502314 559.61054435 -180.09667969 552.64697266 C-177.62815437 550.7079098 -175.12989081 548.81109713 -172.62573242 546.91845703 C-167.45304853 543.00185211 -162.54266464 538.92063253 -157.78198242 534.51416016 C-155.33271585 532.3006852 -152.83517218 530.16263294 -150.30522156 528.04246521 C-142.66873446 521.61959036 -135.50388624 514.81474283 -128.4753418 507.73608398 C-126.67784195 505.92778392 -124.86977684 504.13054023 -123.06054688 502.33398438 C-116.24668605 495.52796853 -109.97296351 488.56334649 -104 481 C-103.04075253 479.85227201 -102.07564132 478.70938644 -101.1015625 477.57421875 C-92.70008641 467.781331 -84.36037937 457.88918754 -77.33984375 447.04296875 C-75.86636599 444.79623736 -74.33097391 442.60991739 -72.75 440.4375 C-72.27046875 439.77621094 -71.7909375 439.11492187 -71.296875 438.43359375 C-70.86890625 437.96050781 -70.4409375 437.48742187 -70 437 C-69.34 437 -68.68 437 -68 437 C-67.84047852 436.16142456 -67.84047852 436.16142456 -67.67773438 435.3059082 C-66.87549768 432.57639609 -65.65314689 430.52549808 -64.15625 428.10546875 C-63.5684375 427.14833984 -62.980625 426.19121094 -62.375 425.20507812 C-61.75625 424.20927734 -61.1375 423.21347656 -60.5 422.1875 C-57.99632042 418.12725647 -55.49564934 414.06518474 -53 410 C-52.64491364 409.42245972 -52.28982727 408.84491943 -51.92398071 408.24987793 C-46.13612527 398.81068685 -40.75584637 389.21875364 -35.6875 379.375 C-35.1454744 378.32780792 -35.1454744 378.32780792 -34.59249878 377.25946045 C-27.57659399 363.65730214 -21.59594872 349.74051991 -16.05883789 335.47900391 C-15 333 -15 333 -13 330 C-12.23945794 327.60930385 -11.54026181 325.22954313 -10.875 322.8125 C-9.1759683 316.80641 -7.3006004 310.89796283 -5.24755859 305.00366211 C2.72596032 281.99442042 8.86605748 258.00315181 13 234 C13.21140625 232.79085937 13.4228125 231.58171875 13.640625 230.3359375 C14.66984854 224.05767389 15.33693344 217.80913585 15.75390625 211.4609375 C16 209 16 209 17 206 C17.20421838 203.16363361 17.37199947 200.3397154 17.5 197.5 C17.86486486 189.40540541 17.86486486 189.40540541 19 186 C19.095979 183.47571297 19.13645978 180.97932274 19.12939453 178.45507812 C19.13114685 177.68892685 19.13289917 176.92277557 19.13470459 176.13340759 C19.13910801 173.59933206 19.13619041 171.06532625 19.1328125 168.53125 C19.13348597 166.77152493 19.13445636 165.01179995 19.13571167 163.2520752 C19.1371866 159.56338618 19.13504065 155.87472136 19.13037109 152.18603516 C19.12467393 147.45464399 19.12795403 142.72330955 19.13394356 137.99192047 C19.13755469 134.35800752 19.13640803 130.72410805 19.13381577 127.0901947 C19.13314803 125.34545383 19.13396959 123.60071174 19.13629532 121.85597229 C19.13883086 119.41892244 19.13496847 116.98196484 19.12939453 114.54492188 C19.13141876 113.82171249 19.13344299 113.09850311 19.13552856 112.3533783 C19.12252616 109.28929158 18.97719474 106.93158421 18 104 C17.8663572 102.61655591 17.77672065 101.22851843 17.71875 99.83984375 C17.66267578 98.6497168 17.66267578 98.6497168 17.60546875 97.43554688 C17.53499162 95.76628298 17.46467989 94.0970121 17.39453125 92.42773438 C17.35714844 91.63560547 17.31976562 90.84347656 17.28125 90.02734375 C17.25095703 89.30281006 17.22066406 88.57827637 17.18945312 87.83178711 C17.09892182 85.90382267 17.09892182 85.90382267 16 84 C15.89294428 82.33468883 15.81484677 80.66748827 15.75 79 C15.35414964 73.61132742 14.1946789 68.8778844 12.625 63.75 C10.4352704 56.50194035 9.26745458 49.39594683 8.4375 41.875 C7.08599631 29.68166838 4.63459976 18.36255986 0.52734375 6.7734375 C-0.15612309 4.47496382 -0.23020891 2.37882541 0 0 Z " fill="#0C0000" transform="translate(1004,365)"/>
<path d="M0 0 C0.66 0 1.32 0 2 0 C4.73981931 7.93711014 7.40554307 15.73781407 9 24 C9.66 24 10.32 24 11 24 C12.13077693 27.64406649 13.25354748 31.29055419 14.375 34.9375 C14.85066406 36.46987305 14.85066406 36.46987305 15.3359375 38.03320312 C18.35050346 47.86194423 20.21971847 57.22172338 21.3125 67.4375 C22.27767857 75.89417901 23.80580295 83.80728963 26.29516602 91.93920898 C27.88839396 97.23137399 28.64381025 102.26940652 28.859375 107.8125 C28.86052534 110.04514393 28.86052534 110.04514393 30 112 C30.13844275 113.33857726 30.22503427 114.68280098 30.28125 116.02734375 C30.31863281 116.81947266 30.35601563 117.61160156 30.39453125 118.42773438 C30.44673828 119.67006836 30.44673828 119.67006836 30.5 120.9375 C30.56900029 122.57178464 30.64176558 124.20591575 30.71875 125.83984375 C30.74904297 126.56550537 30.77933594 127.29116699 30.81054688 128.03881836 C30.94683305 130.21307065 30.94683305 130.21307065 32 133 C32.095979 135.52428703 32.13645978 138.02067726 32.12939453 140.54492188 C32.13114685 141.31107315 32.13289917 142.07722443 32.13470459 142.86659241 C32.13910801 145.40066794 32.13619041 147.93467375 32.1328125 150.46875 C32.13348597 152.22847507 32.13445636 153.98820005 32.13571167 155.7479248 C32.1371866 159.43661382 32.13504065 163.12527864 32.13037109 166.81396484 C32.12467393 171.54535601 32.12795403 176.27669045 32.13394356 181.00807953 C32.13755469 184.64199248 32.13640803 188.27589195 32.13381577 191.9098053 C32.13314803 193.65454617 32.13396959 195.39928826 32.13629532 197.14402771 C32.13883086 199.58107756 32.13496847 202.01803516 32.12939453 204.45507812 C32.13141876 205.17828751 32.13344299 205.90149689 32.13552856 206.6466217 C32.12252616 209.71070842 31.97719474 212.06841579 31 215 C30.79578162 217.83636639 30.62800053 220.6602846 30.5 223.5 C30.13513514 231.59459459 30.13513514 231.59459459 29 235 C28.845364 236.72676868 28.7252657 238.45672296 28.625 240.1875 C28.03435811 247.92209618 26.5187569 255.40621551 25 263 C24.73509766 264.44826172 24.73509766 264.44826172 24.46484375 265.92578125 C23.43860829 271.47090227 21.92085292 276.69844594 20 282 C18.35 282 16.7 282 15 282 C14.375 280.1875 14.375 280.1875 14 278 C14.66 277.01 15.32 276.02 16 275 C16.42759233 272.69994455 16.77262505 270.3839355 17.0625 268.0625 C17.92638109 261.27282303 17.92638109 261.27282303 18.53125 259.03125 C19.40259063 255.25544062 19.36120704 251.32249435 19.51757812 247.45898438 C19.7162605 243.57155757 20.1872958 239.89311827 20.96875 236.078125 C22.46978541 228.22608431 22.68148591 220.28059213 23.0625 212.3125 C23.17897778 209.97204733 23.29756339 207.63173501 23.41929626 205.29154968 C23.49393332 203.84804568 23.56543644 202.40437451 23.6330719 200.96052551 C23.8050416 197.54984058 24.07746268 194.17936867 24.51855469 190.79467773 C30.95597738 140.05590446 22.70269567 61.40539134 0 16 C-0.07181821 13.28239892 -0.09299506 10.59140612 -0.0625 7.875 C-0.05798828 7.12089844 -0.05347656 6.36679687 -0.04882812 5.58984375 C-0.03703499 3.72652873 -0.01909942 1.86325445 0 0 Z " fill="#FC0702" transform="translate(992,339)"/>
<path d="M0 0 C0.66 0 1.32 0 2 0 C2.06993164 0.60021973 2.13986328 1.20043945 2.21191406 1.81884766 C4.79202871 23.86596882 7.56765868 45.89106632 10.91918945 67.83544922 C11.88850594 74.19646338 12.80340804 80.56408155 13.6875 86.9375 C13.81906494 87.86820313 13.95062988 88.79890625 14.08618164 89.7578125 C14.20598389 90.63050781 14.32578613 91.50320313 14.44921875 92.40234375 C14.60910278 93.55464478 14.60910278 93.55464478 14.7722168 94.73022461 C15.01430613 97.1425553 15 99.57555231 15 102 C5.43 102 -4.14 102 -14 102 C-12.87495669 90.74956693 -12.87495669 90.74956693 -12.23144531 86.18774414 C-12.08733215 85.1591629 -11.94321899 84.13058167 -11.79473877 83.0708313 C-11.64075623 81.98655853 -11.48677368 80.90228577 -11.328125 79.78515625 C-11.16528015 78.62724579 -11.0024353 77.46933533 -10.83465576 76.27633667 C-10.30838988 72.53811283 -9.77925889 68.80030115 -9.25 65.0625 C-8.88787987 62.49489292 -8.52590132 59.92726588 -8.1640625 57.35961914 C-5.46696024 38.23630138 -2.74960809 19.11584155 0 0 Z " fill="#FE0705" transform="translate(342,485)"/>
<path d="M0 0 C0.33 0 0.66 0 1 0 C1.00410889 0.61818604 1.00821777 1.23637207 1.01245117 1.87329102 C1.14623865 13.40577153 1.51902127 23.65849256 5.6796875 34.5 C7.78260945 40.07460968 9.04084899 45.85125012 10.42138672 51.63574219 C11.0679325 54.27757737 11.75244059 56.90797669 12.44140625 59.5390625 C23.65417997 102.61766708 26.25363894 145.6951311 26 190 C25.67 190 25.34 190 25 190 C24.9498877 189.15219971 24.89977539 188.30439941 24.84814453 187.4309082 C23.92127166 171.8054289 22.97549403 156.18103537 21.9375 140.5625 C21.81882568 138.70782104 21.81882568 138.70782104 21.69775391 136.81567383 C21.62089355 135.68154053 21.5440332 134.54740723 21.46484375 133.37890625 C21.399021 132.3844751 21.33319824 131.39004395 21.26538086 130.36547852 C21.13586872 127.98448234 21.13586872 127.98448234 20 126 C19.81677286 123.83617477 19.67799595 121.66849544 19.5625 119.5 C19.16574283 113.48760285 18.31662742 107.86497667 17 102 C15.2715948 93.69250405 13.67701181 85.40900065 12.52734375 77 C11.64296839 71.96888684 10.0533315 67.15878989 8.52734375 62.29296875 C8.26759766 61.45830078 8.00785156 60.62363281 7.74023438 59.76367188 C7.20805648 58.05578223 6.66906244 56.35000055 6.12304688 54.64648438 C4.31143847 48.76892194 3.38736077 43.13635147 3 37 C2.34 37 1.68 37 1 37 C1 120.16 1 203.32 1 289 C0.67 289 0.34 289 0 289 C0 193.63 0 98.26 0 0 Z " fill="#FE7B3E" transform="translate(991,332)"/>
<path d="M0 0 C4.80923544 2.77866937 6.71431386 4.99325894 9 10 C9.99 10.66 10.98 11.32 12 12 C13.31640625 14.3125 13.31640625 14.3125 14.5625 17 C16.33291565 20.80737013 16.33291565 20.80737013 19 24 C19 24.99 19 25.98 19 27 C19.66 27 20.32 27 21 27 C21.26554688 27.63808594 21.53109375 28.27617187 21.8046875 28.93359375 C22.15789063 29.75988281 22.51109375 30.58617187 22.875 31.4375 C23.22304688 32.26121094 23.57109375 33.08492188 23.9296875 33.93359375 C24.8244937 36.15746715 24.8244937 36.15746715 27 37 C27 38.32 27 39.64 27 41 C27.58523438 41.17402344 28.17046875 41.34804688 28.7734375 41.52734375 C32.10343645 43.72981674 33.13052431 47.00154796 34.625 50.5625 C36.36988629 55.57849546 36.36988629 55.57849546 40 59 C40.495 58.01 40.495 58.01 41 57 C59 95.43231441 59 95.43231441 59 100 C39.86 100 20.72 100 1 100 C1 99.67 1 99.34 1 99 C17.5 98.67 34 98.34 51 98 C48.87040416 91.61121247 46.67397309 85.54305072 44.0625 79.375 C43.72798828 78.56804687 43.39347656 77.76109375 43.04882812 76.9296875 C41.27730956 72.72446423 39.37662378 68.7305388 37.05151367 64.80517578 C34.94656674 61.19152879 33.06022432 57.45639625 31.125 53.75 C25.63541934 43.29317938 20.07844594 32.97407297 13.83203125 22.9453125 C13.22746094 21.97335938 12.62289062 21.00140625 12 20 C11.42636719 19.08992188 10.85273437 18.17984375 10.26171875 17.2421875 C9 15 9 15 9 13 C8.34 13 7.68 13 7 13 C6.401875 11.9275 5.80375 10.855 5.1875 9.75 C3.96441973 7.59546359 2.74978258 5.66935555 1.25 3.6875 C0 2 0 2 0 0 Z " fill="#FE5E00" transform="translate(925,231)"/>
<path d="M0 0 C0.66 0 1.32 0 2 0 C2 111.21 2 222.42 2 337 C1.67 337 1.34 337 1 337 C0.67 233.05 0.34 129.1 0 22 C-0.99 23.98 -1.98 25.96 -3 28 C-4.41869483 24.16006598 -3.56869248 21.27963586 -2.625 17.375 C-1.29648942 11.575657 -0.39641158 5.93250435 0 0 Z " fill="#FF560D" transform="translate(782,357)"/>
<path d="M0 0 C1.44898682 0.00398804 1.44898682 0.00398804 2.92724609 0.00805664 C11.60077833 0.06188296 20.26860003 0.29022812 28.9375 0.5625 C30.23582764 0.60165527 31.53415527 0.64081055 32.87182617 0.68115234 C34.7025769 0.74423584 34.7025769 0.74423584 36.5703125 0.80859375 C37.6545752 0.84525146 38.73883789 0.88190918 39.85595703 0.91967773 C42.59795726 1.11010071 45.13052242 1.54679116 47.8125 2.125 C49.93547724 2.29780047 52.06096682 2.44105463 54.1875 2.5625 C61.79241125 3.0619751 69.27274786 4.03733267 76.8125 5.125 C76.8125 5.455 76.8125 5.785 76.8125 6.125 C73.5125 6.125 70.2125 6.125 66.8125 6.125 C66.8125 6.785 66.8125 7.445 66.8125 8.125 C59.43580432 8.40907151 52.40476357 7.30835864 45.125 6.1875 C29.56088194 3.80274342 14.2157462 2.9349831 -1.5 2.5625 C-3.223315 2.51918595 -4.9466224 2.47556819 -6.66992188 2.43164062 C-10.84236869 2.32593287 -15.0148962 2.22430969 -19.1875 2.125 C-19.1875 1.795 -19.1875 1.465 -19.1875 1.125 C-12.75035134 0.30489815 -6.48572764 -0.03294301 0 0 Z " fill="#FE3C02" transform="translate(514.1875,6.875)"/>
<path d="M0 0 C2 2 2 2 2.15234375 3.78515625 C1.54346727 10.23924698 -0.0969387 16.17431706 -1.99487305 22.34277344 C-3.4702306 27.13964671 -4.73344617 31.92506825 -5.875 36.8125 C-7.43287249 43.2734504 -9.37614414 49.57827949 -11.5 55.875 C-11.92708252 57.18754761 -11.92708252 57.18754761 -12.36279297 58.52661133 C-12.64525879 59.34025146 -12.92772461 60.1538916 -13.21875 60.9921875 C-13.46560547 61.71776855 -13.71246094 62.44334961 -13.96679688 63.19091797 C-15.27197959 65.47622136 -16.5937923 66.0451063 -19 67 C-17.56439716 62.12421039 -16.10751521 57.26106395 -14.4921875 52.44140625 C-8.75131887 35.20280908 -4.39905373 17.61724146 0 0 Z " fill="#0E0A09" transform="translate(1013,619)"/>
<path d="M0 0 C17.82 0 35.64 0 54 0 C54 0.33 54 0.66 54 1 C53.04493309 1.0154612 53.04493309 1.0154612 52.0705719 1.03123474 C45.46873202 1.13906331 38.86703522 1.25367961 32.26538086 1.37231445 C29.79861431 1.41573943 27.33181622 1.45740872 24.86499023 1.49731445 C21.32786534 1.55483445 17.79090034 1.61858075 14.25390625 1.68359375 C13.14350479 1.70030624 12.03310333 1.71701874 10.88905334 1.73423767 C9.86807053 1.75418289 8.84708771 1.77412811 7.79516602 1.79467773 C6.43948265 1.81799416 6.43948265 1.81799416 5.05641174 1.84178162 C3.00805899 1.77501457 3.00805899 1.77501457 2 3 C1.87603129 5.14668285 1.8219928 7.29742387 1.79467773 9.44750977 C1.78477814 10.12065216 1.77487854 10.79379456 1.76467896 11.48733521 C1.73298162 13.72198925 1.70827426 15.95666458 1.68359375 18.19140625 C1.66303131 19.73697984 1.64203504 21.28254772 1.62062073 22.82810974 C1.56532663 26.90350732 1.51594987 30.97895625 1.46777344 35.05444336 C1.40879831 39.94034211 1.34253015 44.82614664 1.27747345 49.71196747 C1.17937164 57.14125428 1.09057893 64.57060048 1 72 C18.49 72 35.98 72 54 72 C54 72.33 54 72.66 54 73 C36.18 73 18.36 73 0 73 C0 48.91 0 24.82 0 0 Z " fill="#FE5609" transform="translate(850,401)"/>
<path d="M0 0 C27.06 0 54.12 0 82 0 C82 0.33 82 0.66 82 1 C55.6 1.33 29.2 1.66 2 2 C2 15.2 2 28.4 2 42 C1.34 42 0.68 42 0 42 C0 28.14 0 14.28 0 0 Z " fill="#FAE1DD" transform="translate(20,328)"/>
<path d="M0 0 C0.02929981 3.83331699 0.04689897 7.66660471 0.0625 11.5 C0.07087891 12.57765625 0.07925781 13.6553125 0.08789062 14.765625 C0.09111328 15.82265625 0.09433594 16.8796875 0.09765625 17.96875 C0.10289307 18.93232422 0.10812988 19.89589844 0.11352539 20.88867188 C0.00222992 23.93888576 -0.34825648 26.90862687 -0.75175476 29.93234253 C-1.1554514 33.29476901 -1.30647222 36.66994283 -1.46484375 40.05078125 C-1.54337881 41.56967394 -1.62216267 43.08855378 -1.70117188 44.60742188 C-1.82026814 46.95682188 -1.93720227 49.30627353 -2.04956055 51.65600586 C-2.44415308 59.81234471 -2.90934209 67.75984286 -4.55200195 75.78051758 C-5.11542087 78.57182079 -5.40391291 81.35021571 -5.625 84.1875 C-5.69976563 85.10917969 -5.77453125 86.03085937 -5.8515625 86.98046875 C-5.90054688 87.64691406 -5.94953125 88.31335938 -6 89 C-6.66 89 -7.32 89 -8 89 C-8.19232234 83.13416872 -7.76481375 77.90246415 -6.53515625 72.1640625 C-4.98766774 63.01467789 -4.76499747 53.71401018 -4.46484375 44.45703125 C-4.42186661 43.20742111 -4.37888947 41.95781097 -4.33460999 40.67033386 C-4.22225536 37.38751037 -4.11255887 34.10461298 -4.00421143 30.82165527 C-3.89245569 27.45589575 -3.77712056 24.09025895 -3.66210938 20.72460938 C-3.43815007 14.14984642 -3.21770162 7.57497298 -3 1 C-1 0 -1 0 0 0 Z " fill="#FE3706" transform="translate(1018,502)"/>
<path d="M0 0 C4.80923544 2.77866937 6.71431386 4.99325894 9 10 C9.99 10.66 10.98 11.32 12 12 C13.31640625 14.3125 13.31640625 14.3125 14.5625 17 C16.33291565 20.80737013 16.33291565 20.80737013 19 24 C19 24.99 19 25.98 19 27 C19.66 27 20.32 27 21 27 C21.26554688 27.63808594 21.53109375 28.27617187 21.8046875 28.93359375 C22.15789063 29.75988281 22.51109375 30.58617187 22.875 31.4375 C23.22304688 32.26121094 23.57109375 33.08492188 23.9296875 33.93359375 C24.8244937 36.15746715 24.8244937 36.15746715 27 37 C27.7109375 39.07421875 27.7109375 39.07421875 28.375 41.6875 C29.61176286 46.09464481 31.30809529 49.26606766 34 53 C36.17924528 57.46226415 36.17924528 57.46226415 35 61 C34.41992188 59.90042969 33.83984375 58.80085938 33.2421875 57.66796875 C31.21050853 53.82012496 29.17325875 49.97526638 27.13232422 46.13232422 C26.20278956 44.38188098 25.27498165 42.63052089 24.34765625 40.87890625 C21.06492562 34.75902338 17.50236765 28.83812084 13.83203125 22.9453125 C13.22746094 21.97335938 12.62289062 21.00140625 12 20 C11.42636719 19.08992188 10.85273437 18.17984375 10.26171875 17.2421875 C9 15 9 15 9 13 C8.34 13 7.68 13 7 13 C6.401875 11.9275 5.80375 10.855 5.1875 9.75 C3.96441973 7.59546359 2.74978258 5.66935555 1.25 3.6875 C0 2 0 2 0 0 Z " fill="#FF5400" transform="translate(925,231)"/>
<path d="M0 0 C2.5459815 3.81897225 3.62599692 7.64585325 5 12 C5.33386719 12.99773437 5.66773438 13.99546875 6.01171875 15.0234375 C8.18649338 21.70137 9.65355542 28.15147279 10.5078125 35.125 C11.00092069 38.00537799 11.90782144 40.30093804 13 43 C14.57236905 50.18140483 15.41950186 56.76054053 14 64 C9.6931987 57.53979805 9.44197568 50.10111937 8.625 42.5625 C7.17788754 30.15558333 4.70775065 18.568964 0.52734375 6.7734375 C-0.15612309 4.47496382 -0.23020891 2.37882541 0 0 Z " fill="#D62211" transform="translate(1004,365)"/>
<path d="M0 0 C5.87128103 -0.63818272 9.09821799 0.90814365 14.22265625 3.6875 C18.92768787 5.91097486 23.92867398 6.92822491 29 8 C29 8.66 29 9.32 29 10 C29.70382812 10.12246094 30.40765625 10.24492188 31.1328125 10.37109375 C42.20883361 12.80057522 52.18965795 18.53171805 62 24 C57.68791559 25.43736147 55.01693748 23.42019584 51.125 21.5625 C43.25804028 17.92655103 35.29050424 14.72795787 27.17041016 11.70336914 C23.5072444 10.33773698 19.86553496 8.97015471 16.28515625 7.3984375 C12.09875162 5.61635325 7.81977183 4.30660445 3.4765625 2.96484375 C1 2 1 2 0 0 Z " fill="#FF5C00" transform="translate(663,35)"/>
<path d="M0 0 C17.49 0 34.98 0 53 0 C53 0.33 53 0.66 53 1 C41.84897734 1.92563612 30.80800698 2.09781056 19.625 2 C16.49219182 1.97345078 13.35943991 1.95353389 10.2265625 1.9375 C9.51319733 1.92920166 8.79983215 1.92090332 8.06484985 1.91235352 C6.37633546 1.9038021 4.68769253 1.94663423 3 2 C1.18502618 3.81497382 1.82764607 6.63595572 1.79467773 9.08032227 C1.77473251 10.38159561 1.75478729 11.68286896 1.73423767 13.02357483 C1.71725201 14.4545174 1.70037325 15.88546125 1.68359375 17.31640625 C1.66303094 18.7722992 1.64203466 20.22818609 1.62062073 21.68406677 C1.56533039 25.52272647 1.51595198 29.36144065 1.46777344 33.20019531 C1.41760909 37.11463288 1.36189664 41.02899096 1.30664062 44.94335938 C1.19897397 52.62883901 1.09754807 60.31438457 1 68 C1.99 68.33 2.98 68.66 4 69 C2.68 69 1.36 69 0 69 C0 46.23 0 23.46 0 0 Z " fill="#FE5608" transform="translate(850,552)"/>
<path d="M0 0 C0.99 0.33 1.98 0.66 3 1 C4.20427373 3.48180012 5.22540913 5.86479775 6.1875 8.4375 C6.46013672 9.13166016 6.73277344 9.82582031 7.01367188 10.54101562 C9 15.68356438 9 15.68356438 9 18 C-10.14 18 -29.28 18 -49 18 C-49 17.67 -49 17.34 -49 17 C-31.51 17 -14.02 17 4 17 C2.68 13.7 1.36 10.4 0 7 C-0.25 2.875 -0.25 2.875 0 0 Z " fill="#FF702A" transform="translate(975,313)"/>
<path d="M0 0 C0.66 0.33 1.32 0.66 2 1 C-4.7574401 8.66274308 -11.85261561 15.98557904 -19.05291748 23.23016357 C-20.0610162 24.24510985 -21.06740159 25.26176072 -22.07208252 26.28009033 C-23.50247514 27.72835477 -24.9405459 29.1690235 -26.37890625 30.609375 C-27.2201001 31.45467773 -28.06129395 32.29998047 -28.92797852 33.17089844 C-31 35 -31 35 -33 35 C-31.67005617 32.04734888 -30.22220684 29.97649784 -27.92724609 27.70019531 C-27.30675385 27.07985413 -26.6862616 26.45951294 -26.04696655 25.82037354 C-25.37920197 25.16293152 -24.71143738 24.5054895 -24.0234375 23.828125 C-23.33819 23.1457074 -22.6529425 22.46328979 -21.94692993 21.76019287 C-19.76094155 19.58538402 -17.56809571 17.41763928 -15.375 15.25 C-13.89016745 13.7752001 -12.40578694 12.29994494 -10.921875 10.82421875 C-7.2864709 7.21084552 -3.64490176 3.60379147 0 0 Z " fill="#FB291E" transform="translate(165,134)"/>
<path d="M0 0 C0.33 0 0.66 0 1 0 C2.12912326 18.67085963 2.10703059 37.30422517 2 56 C1.67 56 1.34 56 1 56 C0.91697632 54.57905029 0.91697632 54.57905029 0.83227539 53.12939453 C0.62372948 49.56953777 0.41246691 46.00984627 0.20043945 42.45019531 C0.10954447 40.91801163 0.01935798 39.38578573 -0.07006836 37.85351562 C-0.51661604 30.20981674 -0.98491431 22.58290572 -1.80151367 14.96777344 C-2.05076759 12.49669528 -2.1671122 10.04573459 -2.1875 7.5625 C-2.20167969 6.75941406 -2.21585938 5.95632813 -2.23046875 5.12890625 C-2 3 -2 3 0 0 Z " fill="#FF5907" transform="translate(1015,466)"/>
<path d="M0 0 C3.21146628 1.60573314 3.66343054 4.96617389 4.8125 8.1875 C5.07240723 8.90204346 5.33231445 9.61658691 5.60009766 10.3527832 C6.13847714 11.83570248 6.67392296 13.31968987 7.20654297 14.8046875 C7.95539663 16.87659277 8.72539627 18.93908674 9.50390625 21 C9.95636719 22.216875 10.40882813 23.43375 10.875 24.6875 C11.28492188 25.78449219 11.69484375 26.88148438 12.1171875 28.01171875 C12.95953061 30.86301289 13.18600873 33.05121449 13 36 C12.67 35.34 12.34 34.68 12 34 C11.34 34 10.68 34 10 34 C8.82599412 30.56496228 7.66206791 27.12659286 6.5 23.6875 C6.16613281 22.71103516 5.83226562 21.73457031 5.48828125 20.72851562 C5.01455078 19.32182617 5.01455078 19.32182617 4.53125 17.88671875 C4.23798828 17.02264404 3.94472656 16.15856934 3.64257812 15.26831055 C3 13 3 13 3 10 C2.34 10 1.68 10 1 10 C0.67 6.7 0.34 3.4 0 0 Z " fill="#80140A" transform="translate(991,329)"/>
<path d="M0 0 C0.33 0 0.66 0 1 0 C1.73103634 3.98851356 2.15700239 7.83512322 2.28125 11.88671875 C2.31863281 12.99080078 2.35601562 14.09488281 2.39453125 15.23242188 C2.42933594 16.37259766 2.46414063 17.51277344 2.5 18.6875 C2.72726343 26.00622417 3.03376682 33.27001891 3.79272461 40.55517578 C4.11688888 44.37871059 4.06286914 48.16498262 4 52 C3.67 52 3.34 52 3 52 C2.86722656 50.71222656 2.73445312 49.42445313 2.59765625 48.09765625 C2.41950101 46.41924638 2.24110308 44.74086227 2.0625 43.0625 C1.93198242 41.78729492 1.93198242 41.78729492 1.79882812 40.48632812 C1.66831055 39.27299805 1.66831055 39.27299805 1.53515625 38.03515625 C1.456604 37.2862915 1.37805176 36.53742676 1.29711914 35.76586914 C1.1719262 33.97859987 1.1719262 33.97859987 0 33 C-0.08843793 30.55169574 -0.11528752 28.13179401 -0.09765625 25.68359375 C-0.0962413 24.95253922 -0.09482635 24.22148468 -0.09336853 23.46827698 C-0.08775408 21.12464368 -0.07519922 18.78110461 -0.0625 16.4375 C-0.05748686 14.85221492 -0.05292363 13.26692834 -0.04882812 11.68164062 C-0.03777997 7.7877239 -0.02050572 3.89387795 0 0 Z " fill="#F93426" transform="translate(0,522)"/>
<path d="M0 0 C2.54716405 3.82074608 3.61988484 7.646364 5 12 C5.34546875 12.99773437 5.6909375 13.99546875 6.046875 15.0234375 C8.61792889 22.71796835 9.73479198 29.89789497 10 38 C9.34 37.67 8.68 37.34 8 37 C7.47396798 34.63741686 7.0558998 32.32556483 6.6875 29.9375 C5.55345792 23.17701219 3.85694095 16.79758287 1.62573242 10.31811523 C0.42592119 6.75636231 -0.26631459 3.76439267 0 0 Z " fill="#0B0100" transform="translate(1004,365)"/>
<path d="M0 0 C0.66 0 1.32 0 2 0 C6 4.47058824 6 4.47058824 6 7 C6.66 7 7.32 7 8 7 C8.94401042 8.79036458 9.88802083 10.58072917 10.83203125 12.37109375 C11.99019799 14.32267987 11.99019799 14.32267987 15 15 C16.5 17.36328125 16.5 17.36328125 18 20.3125 C19.78155819 23.78746637 21.56111896 26.94414013 24 30 C23.67 30.66 23.34 31.32 23 32 C13 18.86666667 13 18.86666667 13 16 C12.01 15.67 11.02 15.34 10 15 C8.97388051 13.34928604 7.97691857 11.68029994 7 10 C6.34 9.360625 5.68 8.72125 5 8.0625 C2.62703991 5.61538491 1.40302401 3.08665282 0 0 Z " fill="#FF5804" transform="translate(901,199)"/>
<path d="M0 0 C0.33 0 0.66 0 1 0 C1.33 9.9 1.66 19.8 2 30 C-0.63743301 27.36256699 -0.86055002 25.18091039 -1.6875 21.5625 C-2.09548828 19.83193359 -2.09548828 19.83193359 -2.51171875 18.06640625 C-3 15 -3 15 -2 12 C-1.67 12.33 -1.34 12.66 -1 13 C-0.67 8.71 -0.34 4.42 0 0 Z " fill="#F33D2C" transform="translate(20,632)"/>
<path d="M0 0 C6.80102897 -0.73924228 11.13476677 1.76400925 17 5 C18.20497434 5.61083848 19.41268091 6.21637146 20.625 6.8125 C21.40875 7.204375 22.1925 7.59625 23 8 C19.44606055 9.18464648 18.50010619 8.48647451 15.24609375 6.9609375 C11.42851805 5.32767903 7.44069156 4.18949404 3.4765625 2.96484375 C1 2 1 2 0 0 Z " fill="#FF4B00" transform="translate(663,35)"/>
<path d="M0 0 C0.33 0 0.66 0 1 0 C1.18451025 15.74487472 1.18451025 15.74487472 0 23 C-0.33 23 -0.66 23 -1 23 C-3.1732852 4.7599278 -3.1732852 4.7599278 0 0 Z " fill="#FE4B00" transform="translate(1015,466)"/>
<path d="M0 0 C0.66 0 1.32 0 2 0 C2 6.27 2 12.54 2 19 C1.67 19 1.34 19 1 19 C0.67 16.03 0.34 13.06 0 10 C-0.99 10.99 -1.98 11.98 -3 13 C-2.69128878 11.20767663 -2.37790936 9.41615679 -2.0625 7.625 C-1.88847656 6.62726563 -1.71445312 5.62953125 -1.53515625 4.6015625 C-1 2 -1 2 0 0 Z " fill="#FD4E41" transform="translate(19,370)"/>
<path d="M0 0 C2.74804346 2.74804346 2.98365084 5.75182683 3.6875 9.4375 C3.90116211 10.4594043 3.90116211 10.4594043 4.11914062 11.50195312 C4.77081474 14.81219826 5.0845894 16.74623181 4 20 C3.34 19.67 2.68 19.34 2 19 C0.41095576 12.78114785 -0.29116356 6.4055984 0 0 Z " fill="#070100" transform="translate(1014,403)"/>
<path d="M0 0 C5.2857548 -0.33348611 9.43803625 0.84839368 14.375 2.5 C15.11105469 2.73847656 15.84710938 2.97695313 16.60546875 3.22265625 C18.40619578 3.80730788 20.2034691 4.4025788 22 5 C22 5.33 22 5.66 22 6 C16.40445447 6.29105568 12.22999426 5.37632274 7.0625 3.5 C6.37865234 3.26152344 5.69480469 3.02304687 4.99023438 2.77734375 C3.32341903 2.19454118 1.66119684 1.59862949 0 1 C0 0.67 0 0.34 0 0 Z " fill="#070000" transform="translate(379,1008)"/>
<path d="M0 0 C-2.25510123 2.55770268 -4.22021475 3.71113591 -7.4375 4.8125 C-8.58025391 5.22435547 -8.58025391 5.22435547 -9.74609375 5.64453125 C-12.50578295 6.0797682 -13.67239175 5.45806895 -16 4 C-13.71144298 3.13656269 -11.4198072 2.2840189 -9.125 1.4375 C-8.47402344 1.19064453 -7.82304688 0.94378906 -7.15234375 0.68945312 C-2.2265625 -1.11328125 -2.2265625 -1.11328125 0 0 Z " fill="#220100" transform="translate(689,994)"/>
<path d="M0 0 C0.33 0 0.66 0 1 0 C1 2.64 1 5.28 1 8 C1.66 8 2.32 8 3 8 C2.03644647 17.41002278 2.03644647 17.41002278 1 22 C0.67 22 0.34 22 0 22 C0 14.74 0 7.48 0 0 Z " fill="#FA3014" transform="translate(247,634)"/>
<path d="M0 0 C5.69305433 1.23876645 11.35370013 2.56276003 17 4 C15.421875 5.1484375 15.421875 5.1484375 13 6 C9.765625 5.1015625 9.765625 5.1015625 6.25 3.625 C5.07953125 3.14289062 3.9090625 2.66078125 2.703125 2.1640625 C1.81109375 1.77992188 0.9190625 1.39578125 0 1 C0 0.67 0 0.34 0 0 Z " fill="#240000" transform="translate(347,998)"/>
<path d="M0 0 C4.17576168 0.68416434 7.88080407 2.01365009 11.8125 3.5625 C13.55466797 4.24505859 13.55466797 4.24505859 15.33203125 4.94140625 C16.21246094 5.29074219 17.09289062 5.64007812 18 6 C14.29632825 7.36589313 12.0677329 6.6131895 8.4375 5.25 C7.48746094 4.90453125 6.53742188 4.5590625 5.55859375 4.203125 C3.11951251 3.05619825 1.73215268 2.02959304 0 0 Z " fill="#260000" transform="translate(318,987)"/>
<path d="M0 0 C0.66 0 1.32 0 2 0 C2.66 1.65 3.32 3.3 4 5 C4.66 4.01 5.32 3.02 6 2 C6.66 3.98 7.32 5.96 8 8 C6.35 8 4.7 8 3 8 C0 2.25 0 2.25 0 0 Z " fill="#FE5503" transform="translate(976,322)"/>
<path d="M0 0 C2.57147284 1.28573642 2.63147834 2.21354542 3.5625 4.875 C3.93568359 5.92300781 3.93568359 5.92300781 4.31640625 6.9921875 C4.88400092 8.65929413 5.44309712 10.32929135 6 12 C5.34 12 4.68 12 4 12 C0.68831371 7.9090934 -0.50130606 5.26371362 0 0 Z " fill="#80130A" transform="translate(986,316)"/>
<path d="M0 0 C2 2 2 2 2.3125 5 C2.209375 5.99 2.10625 6.98 2 8 C1.01 8.66 0.02 9.32 -1 10 C-1.125 3.375 -1.125 3.375 0 0 Z " fill="#190201" transform="translate(1021,571)"/>
<path d="M0 0 C0.33 1.32 0.66 2.64 1 4 C1.66 4 2.32 4 3 4 C3.33 3.01 3.66 2.02 4 1 C3.4140625 7.15234375 3.4140625 7.15234375 3 9 C2.01 9.495 2.01 9.495 1 10 C0.67 6.7 0.34 3.4 0 0 Z " fill="#FD5021" transform="translate(684,500)"/>
<path d="M0 0 C4.55737263 0.43820891 7.57653445 0.85041169 11 4 C10.01 4.495 10.01 4.495 9 5 C5.86560559 3.92770717 2.93804317 2.52342979 0 1 C0 0.67 0 0.34 0 0 Z " fill="#1D0000" transform="translate(336,994)"/>
<path d="M0 0 C0.66 0 1.32 0 2 0 C4.29013653 3.4352048 4.17842973 4.985331 4 9 C1.3144406 6.3144406 0.93950026 3.62378672 0 0 Z " fill="#FF4400" transform="translate(967,304)"/>
<path d="" fill="#000000" transform="translate(0,0)"/>
<path d="" fill="#000000" transform="translate(0,0)"/>
<path d="" fill="#000000" transform="translate(0,0)"/>
<path d="" fill="#000000" transform="translate(0,0)"/>
<path d="" fill="#000000" transform="translate(0,0)"/>
<path d="" fill="#CA2417" transform="translate(0,0)"/>
<path d="" fill="#C72518" transform="translate(0,0)"/>
<path d="" fill="#C72618" transform="translate(0,0)"/>
<path d="" fill="#E63D31" transform="translate(0,0)"/>
</svg>
