<?xml version="1.0" encoding="utf-8"?>
<!-- Generator: Adobe Illustrator 27.6.1, SVG Export Plug-In . SVG Version: 6.00 Build 0)  -->
<svg version="1.1" id="Шар_1" xmlns="http://www.w3.org/2000/svg" xmlns:xlink="http://www.w3.org/1999/xlink" x="0px" y="0px"
	 viewBox="0 0 2000 2000" style="enable-background:new 0 0 2000 2000;" xml:space="preserve">
<style type="text/css">
	.st0{fill:#FFFFFF;}
</style>
<g>
	<path class="st0" d="M548.9,1213.9c84.3,99.2,231.2,33.3,231.2,33.3s-41.4-11.3-96.9-41.4C618.1,1170.6,548.9,1213.9,548.9,1213.9z
		"/>
	<path class="st0" d="M1259.2,1145.4c-8.6-14-20.9-25.7-36.9-34.9c-20.6-12-42.5-18-65.1-18c-34.6,0-64.6,12.4-89.3,36.9
		c-24.7,24.5-37.2,54.3-37.2,88.5c0,19.7,4.1,37.8,12.3,54.4c-63.6,54.2-144.2,84-228.1,84c-21.4,0-42.5-1.9-63.1-5.6
		c-31.8-30.9-79.8-59.4-151.1-67.1c-12.1-9.3-23.6-19.4-34.6-30.4c-7.9-7.9-15.3-16-22.3-24.5c-6.6-22.1-15.7-46.7-28.1-74
		c0,0-5.2,5.4-11.8,14.5c-26.7-50.2-40.8-106.4-40.8-164.9c0-51.3,10.8-100.8,32.1-147.1l-20-9.2c-22.7,49.2-34.1,101.7-34.1,156.3
		c0,50.5,9.9,99.4,29.4,145.5c6,14.1,12.7,27.7,20.3,40.8c-13,25.5-21.5,60.5,3.9,91.7c40,48.9,58.8,87.4,58.8,87.4
		s12.7-32.3,0.9-97.4c13.3,13,27.5,24.8,42.4,35.6c7.3,34.6,28.7,93.7,89.7,103.9c74.5,12.4,123,31.9,123,31.9s-8-32.1-35.1-67.7
		c13.4,1.4,26.9,2.2,40.6,2.2c88.1,0,172.6-30.8,239.8-87c3.9,5.3,8.3,10.3,13.2,15.2c24.7,24.5,54.7,36.9,89.3,36.9
		c22.6,0,44-5.9,63.8-17.5c15.8-9.3,28.6-21.5,38.1-36.2v48.1h23.5v-239.5h-23.5V1145.4z M1260.2,1218.1c0,28-10.1,52.6-30,73
		c-19.9,20.4-44.2,30.7-72.2,30.7c-28,0-52.6-10.3-73-30.8c-20.4-20.4-30.8-44.9-30.8-72.7c0-27.8,10.4-52.5,30.8-73.2
		c20.4-20.7,44.9-31.2,72.7-31.2c27.8,0,52.1,10.4,72.2,31C1250,1165.4,1260.2,1190.1,1260.2,1218.1z"/>
	<polygon class="st0" points="1480.2,1098.1 1448.4,1098.1 1361.2,1174.5 1361.2,944.1 1337.7,944.1 1337.7,1337.6 1361.2,1337.6 
		1361.2,1220.3 1473,1336.5 1474,1337.6 1505.9,1337.6 1369.5,1194.8 	"/>
	<path class="st0" d="M1676.6,1308.6c-15.7,9.1-33.8,13.7-53.8,13.7c-18.8,0-38.7-8-59.3-23.7l161.8-159.7l-2.2-2.5
		c-26.1-28.9-57.7-43.5-94.1-43.5c-36.3,0-67.2,12.4-91.9,36.9c-24.7,24.5-37.2,53.9-37.2,87.5c0,33.5,12.6,63.3,37.4,88.5
		c24.8,25.2,54.5,38,88,38h4.6c35.6,0,66.4-13.9,91.5-41.4l0.9-1v-39.2l-6.4,9.5C1705.7,1287,1692.4,1299.4,1676.6,1308.6z
		 M1624.6,1114.4c25.2,0,48,8.3,67.9,24.6l-145,144c-16-19.3-24.1-41.9-24.1-67.2c0-26.5,10.3-50.2,30.8-70.6
		C1574.6,1124.7,1598.3,1114.4,1624.6,1114.4z"/>
	<path class="st0" d="M1049.1,712.8c-44.1-35.4-96.4-60.7-151.3-73.1l-4.9,21.5c51.6,11.7,100.9,35.5,142.3,68.8L1049.1,712.8z"/>
	<path class="st0" d="M831.1,1186.7L826,464.2l-22,0.2l1.2,166.3c-57.6,1.5-114.5,16.4-165.1,43.2c-45.2,24-85.4,57.4-117.3,97.4
		l-248-306l0.9,711.5l22,0l-0.9-649.3L831.1,1186.7z M650.4,693.3c47.5-25.2,100.9-39.2,155-40.7l2.6,369.3L579,743.4
		C600.7,723.8,624.6,706.9,650.4,693.3z"/>
</g>
</svg>
